<?xml version="1.0" standalone="no"?>
<!DOCTYPE svg PUBLIC "-//W3C//DTD SVG 1.1//EN" "http://www.w3.org/Graphics/SVG/1.1/DTD/svg11.dtd" >
<svg xmlns="http://www.w3.org/2000/svg">
<metadata>
This is a custom SVG webfont generated by Font Squirrel.
Copyright   : Copyright c 1990 Adobe Systems Incorporated  All Rights ReservedHelvetica is a trademark of Linotype AG andor its subsidiaries
</metadata>
<defs>
<font id="webfonthdbz99XW" horiz-adv-x="1368" >
<font-face units-per-em="2048" ascent="1638" descent="-410" />
<missing-glyph horiz-adv-x="569" />
<glyph unicode=" "  horiz-adv-x="569" />
<glyph unicode="&#x09;" horiz-adv-x="569" />
<glyph unicode="&#xa0;" horiz-adv-x="569" />
<glyph unicode="!" horiz-adv-x="606" d="M215 0v225h176v-225h-176zM258 379l-37 696v387h164v-387l-37 -696h-90z" />
<glyph unicode="&#x22;" horiz-adv-x="833" d="M207 950v512h115v-512h-115zM512 950v512h115v-512h-115z" />
<glyph unicode="#" d="M336 0l65 463h-233v90h246l45 315h-234v90h246l66 463h102l-66 -463h291l66 463h102l-65 -463h233v-90h-246l-45 -315h234v-90h-246l-66 -463h-102l66 463h-291l-66 -463h-102zM807 553l45 315h-291l-45 -315h291z" />
<glyph unicode="$" d="M629 811v500q-375 -14 -375 -252q0 -111 111 -172q84 -47 264 -76zM743 649v-543q414 4 414 275q0 215 -414 268zM629 106v560q-260 41 -371 100q-168 92 -168 278q0 205 168 312q139 88 371 94v125h114v-125q229 -12 367 -107q162 -115 168 -329h-152q-23 270 -383 297 v-523q311 -41 444.5 -130t133.5 -250q0 -231 -184 -345q-150 -92 -394 -96v-198h-114v198q-580 29 -582 502h152q0 -336 430 -363z" />
<glyph unicode="%" horiz-adv-x="1972" d="M1487 70q109 0 170 77.5t61 217.5q0 139 -61.5 216.5t-169.5 77.5q-109 0 -170.5 -77.5t-61.5 -216.5t61.5 -217t170.5 -78zM436 -33l975 1483h121l-975 -1483h-121zM485 758q109 0 170.5 77.5t61.5 217.5q0 139 -61.5 217t-170.5 78t-170 -78t-61 -217t61 -217t170 -78z M1487 -33q-160 0 -256 101q-102 106 -103 297q0 190 103 297q96 100 256 100t256 -100q102 -106 102 -297q0 -190 -99 -294t-259 -104zM485 655q-160 0 -256 101q-102 106 -102 297q0 190 102 297q96 100 256 100t256 -100q102 -106 103 -297q0 -190 -99.5 -294t-259.5 -104 z" />
<glyph unicode="&#x26;" horiz-adv-x="1593" d="M1143 270l-506 480q-340 -127 -340 -355q0 -125 98 -209q111 -92 312 -92q266 0 436 176zM1430 0l-191 182q-80 -98 -223.5 -156.5t-317.5 -58.5q-268 0 -415 125q-137 117 -138 311q0 150 97 250q92 94 309 185q-94 90 -131 147q-53 80 -53 174q0 135 98 219t258 84 q182 0 278 -98q78 -80 78 -199q0 -227 -305 -354l449 -424q61 80 77 246h140q0 -168 -117 -338l313 -295h-206zM940 1157q0 78 -53 125q-61 53 -176 53q-82 0 -143.5 -47t-61.5 -123q0 -51 29 -98q37 -66 149 -176q256 110 256 266z" />
<glyph unicode="'" horiz-adv-x="569" d="M227 950v512h115v-512h-115z" />
<glyph unicode="(" horiz-adv-x="720" d="M537 1462h114q-150 -209 -215 -358q-117 -266 -117 -567t117 -568q66 -150 215 -358h-114q-106 121 -191 270q-178 322 -178 656t178 655q85 149 191 270z" />
<glyph unicode=")" horiz-adv-x="720" d="M184 -389h-114q150 209 215 358q117 266 116 568q0 301 -116 567q-66 150 -215 358h114q106 -121 191 -270q178 -322 178 -655q0 -334 -178 -656q-85 -149 -191 -270z" />
<glyph unicode="*" horiz-adv-x="872" d="M379 1188v274h115v-274l260 98l41 -100l-271 -103l189 -211l-78 -73l-199 223l-198 -223l-78 73l188 211l-270 103l41 100z" />
<glyph unicode="+" horiz-adv-x="1228" d="M563 0v467h-467v102h467v467h103v-467h467v-102h-467v-467h-103z" />
<glyph unicode="," horiz-adv-x="569" d="M197 0v225h176v-229q0 -229 -195 -283v78q57 25 78 80q14 41 14 129h-73z" />
<glyph unicode="-" horiz-adv-x="909" d="M143 485v152h623v-152h-623z" />
<glyph unicode="." horiz-adv-x="569" d="M197 0v225h176v-225h-176z" />
<glyph unicode="/" horiz-adv-x="833" d="M8 -37l703 1536h114l-702 -1536h-115z" />
<glyph unicode="0" d="M684 1323q-446 0 -446 -616q0 -612 446 -613q446 0 446 613q0 616 -446 616zM684 1450q276 0 432 -178q166 -190 166 -565q0 -371 -166 -564q-156 -176 -432 -176t-430 176q-168 193 -168 564q0 375 168 565q154 178 430 178z" />
<glyph unicode="1" horiz-adv-x="909" d="M483 0v1065h-442v115h100q188 0 256 45q80 53 111 225h127v-1450h-152z" />
<glyph unicode="2" d="M1217 139v-139h-1111q18 158 95 262q115 156 409 309q260 137 340 213q98 92 99 230q0 309 -363 309q-389 0 -397 -387h-152q0 514 551 514q266 0 402 -141q111 -117 110 -297q0 -168 -102 -283q-72 -80 -252 -178q-313 -170 -412 -244q-113 -82 -139 -168h922z" />
<glyph unicode="3" d="M578 688v127h98q180 0 264 51q96 55 96 191q0 133 -93 199.5t-251 66.5q-401 0 -401 -350h-152q4 209 135 336q147 141 418 141q207 0 340 -88q156 -104 156 -305q0 -106 -68 -187q-74 -90 -198 -104v-4q139 -10 227 -105q94 -100 94 -256q0 -227 -168 -338 q-145 -96 -401 -96q-276 0 -423 127t-149 367h152q14 -367 442 -367q209 0 312 96q84 80 84 207q0 166 -115 236q-94 55 -277 55h-122z" />
<glyph unicode="4" d="M856 483v754h-4l-614 -754h618zM856 0v356h-770v140l776 954h133v-967h271v-127h-271v-356h-139z" />
<glyph unicode="5" d="M147 668l144 749h854v-127h-739l-101 -469l4 -4q143 139 371 139q262 0 412 -135q143 -133 143 -358q0 -193 -115 -326q-150 -170 -452 -170q-514 0 -568 441h152q53 -313 416 -314q184 0 295 90q121 96 120 279q0 174 -111.5 270t-314.5 96q-236 0 -368 -167z" />
<glyph unicode="6" d="M1219 1081h-152q-20 242 -367 242q-219 0 -325 -143q-115 -152 -123 -490l4 -4q139 264 444 264q254 0 402 -127q154 -133 153 -366q0 -233 -163 -367q-150 -123 -392 -123q-588 0 -587 692q0 371 139 574q150 217 448 217q248 0 385 -115q118 -96 134 -254zM289 463 q0 -147 96 -250q111 -119 315 -119q174 0 289 99.5t115 265.5q0 158 -108.5 261t-295.5 103q-223 0 -331 -127q-80 -96 -80 -233z" />
<glyph unicode="7" horiz-adv-x="1214" d="M1130 1417v-139q-178 -160 -352 -455q-236 -401 -297 -823h-164q41 334 258 727q195 354 410 551h-930v139h1075z" />
<glyph unicode="8" d="M250 395q0 -152 125 -229q113 -72 309 -72q197 0 309 72q125 78 125 229q0 156 -127 238q-117 76 -307 76t-307 -76q-127 -82 -127 -238zM98 395q0 299 342 379v4q-272 74 -272 301q0 147 102 244q133 127 414 127t416 -127q100 -96 100 -244q0 -227 -272 -301v-4 q342 -80 342 -379q0 -176 -121 -286q-152 -141 -465 -142q-313 0 -465 142q-121 110 -121 286zM684 836q178 0 274 67q90 61 91 168q0 252 -365 252t-365 -252q0 -106 91 -168q96 -67 274 -67z" />
<glyph unicode="9" d="M150 336h151q20 -242 367 -242q219 0 325 144q115 152 123 489l-4 4q-139 -264 -444 -264q-254 0 -402 127q-154 133 -153 367q0 233 163 366q150 123 392 123q588 0 587 -692q0 -371 -139 -574q-150 -217 -448 -217q-248 0 -385 115q-117 96 -133 254zM1079 954 q0 147 -94 250q-113 119 -317 119q-174 0 -287 -96q-117 -102 -117 -269q0 -158 107 -258q111 -106 297 -106q223 0 331 129q80 94 80 231z" />
<glyph unicode=":" horiz-adv-x="569" d="M197 0v225h176v-225h-176zM197 811v225h176v-225h-176z" />
<glyph unicode=";" horiz-adv-x="569" d="M197 0v225h176v-229q0 -229 -195 -283v78q57 25 78 80q14 41 14 129h-73zM197 811v225h176v-225h-176z" />
<glyph unicode="&#x3c;" horiz-adv-x="1228" d="M96 461v114l1037 478v-115l-910 -420l910 -420v-114z" />
<glyph unicode="=" horiz-adv-x="1228" d="M96 666v102h1037v-102h-1037zM96 268v103h1037v-103h-1037z" />
<glyph unicode="&#x3e;" horiz-adv-x="1228" d="M1006 518l-910 420v115l1037 -478v-114l-1037 -477v114z" />
<glyph unicode="?" horiz-adv-x="1327" d="M262 1006h-151q0 213 131 348q143 145 399 145q223 0 367 -100q164 -115 163 -322q0 -131 -71 -221q-53 -68 -221 -186q-129 -92 -157 -138.5t-28 -152.5h-139q0 158 39 217q35 51 229 197q104 78 138 118q59 70 59 166q0 129 -106.5 206t-272.5 77q-373 0 -379 -354z M537 0v225h176v-225h-176z" />
<glyph unicode="@" horiz-adv-x="1638" d="M508 588q0 -213 170 -213q147 0 262 182q102 164 102 324q0 203 -168 202q-152 0 -264 -174q-102 -155 -102 -321zM1108 1012l49 137h115l-203 -610q-25 -74 -25 -123q0 -53 54 -54q125 0 239 173q109 166 109 331q0 240 -180 396q-170 147 -408 147q-283 0 -474 -200.5 t-191 -477.5q0 -281 194.5 -479.5t470.5 -198.5q162 0 313.5 79t231.5 210h115q-98 -174 -277.5 -276.5t-382.5 -102.5q-326 0 -547 225.5t-221 542.5q0 319 225.5 543.5t542.5 224.5q291 0 490.5 -182t199.5 -457q0 -231 -155 -414q-147 -174 -316 -174q-135 0 -135 142h-4 q-127 -141 -276 -142q-127 0 -204 88.5t-77 217.5q0 229 137 411q150 197 365 197q159 0 225 -174z" />
<glyph unicode="A" horiz-adv-x="1478" d="M1059 584l-322 727l-325 -727h647zM1315 0l-195 444h-770l-198 -444h-164l663 1462h176l664 -1462h-176z" />
<glyph unicode="B" horiz-adv-x="1517" d="M135 0v1462h832q205 0 311 -106q96 -96 96 -262q0 -113 -61 -195q-66 -90 -191 -119v-4q143 -20 226.5 -117.5t83.5 -240.5q0 -211 -158 -324q-131 -94 -326 -94h-813zM287 1323v-496h600q336 0 336 260q0 236 -285 236h-651zM287 688v-549h637q344 0 344 279 q0 270 -307 270h-674z" />
<glyph unicode="C" horiz-adv-x="1669" d="M1434 557h151q-25 -254 -217 -420q-201 -174 -506 -174q-356 0 -567 208t-211 560q0 295 174 510q213 258 604 258q268 0 459 -121q221 -141 252 -409h-152q-33 197 -196 301q-147 90 -363 90q-283 0 -442 -154q-172 -166 -172 -475q0 -270 141 -436q162 -193 473 -193 q488 0 572 455z" />
<glyph unicode="D" horiz-adv-x="1593" d="M135 0v1462h711q315 0 481 -191.5t166 -539.5q0 -322 -158 -520q-170 -211 -467 -211h-733zM287 1323v-1184h553q219 0 344 127q145 152 145 465q0 592 -489 592h-553z" />
<glyph unicode="E" horiz-adv-x="1402" d="M160 0v1462h1163v-139h-1012v-496h975v-139h-975v-549h1028v-139h-1179z" />
<glyph unicode="F" horiz-adv-x="1251" d="M135 0v1462h1096v-139h-944v-496h897v-139h-897v-688h-152z" />
<glyph unicode="G" horiz-adv-x="1744" d="M1493 0l-20 276h-5q-115 -164 -251 -237q-145 -76 -357 -76q-365 0 -569 213q-197 205 -197 555q0 338 212 553t571 215q295 0 491 -147q184 -139 215 -353h-164q-43 178 -194 273q-141 88 -348 88q-295 0 -457 -168t-162 -461q0 -299 150 -461q152 -168 440 -168 q535 0 622 512h-536v140h676v-754h-117z" />
<glyph unicode="H" horiz-adv-x="1630" d="M135 0v1462h152v-618h1056v618h152v-1462h-152v705h-1056v-705h-152z" />
<glyph unicode="I" horiz-adv-x="454" d="M152 0v1462h151v-1462h-151z" />
<glyph unicode="J" horiz-adv-x="1138" d="M203 479v-53q0 -336 323 -336q164 0 240 74q86 84 86 287v1011h152v-1052q0 -205 -117 -322q-127 -125 -369 -125q-297 0 -403 191q-59 104 -64 325h152z" />
<glyph unicode="K" horiz-adv-x="1517" d="M160 0v1462h151v-790l944 790h220l-725 -604l774 -858h-215l-678 756l-320 -262v-494h-151z" />
<glyph unicode="L" horiz-adv-x="1214" d="M135 0v1462h152v-1323h927v-139h-1079z" />
<glyph unicode="M" horiz-adv-x="2009" d="M1008 190l651 1272h215v-1462h-152v1264h-4l-645 -1264h-139l-643 1266h-4v-1266h-152v1462h221z" />
<glyph unicode="N" horiz-adv-x="1630" d="M135 0v1462h182l1022 -1249h4v1249h152v-1462h-176l-1028 1249h-4v-1249h-152z" />
<glyph unicode="O" horiz-adv-x="1744" d="M78 731q0 369 241 578q219 190 553 190t553 -190q242 -209 242 -578t-242 -577q-219 -190 -553 -191q-334 0 -553 191q-241 208 -241 577zM242 731q0 -309 194 -479q172 -150 436 -150t437 150q195 170 194 479q0 309 -194 479q-172 150 -437 150q-264 0 -436 -150 q-194 -170 -194 -479z" />
<glyph unicode="P" horiz-adv-x="1441" d="M311 1323v-569h586q328 0 328 286q0 283 -297 283h-617zM160 0v1462h788q188 0 305 -94q135 -111 136 -328q0 -207 -131.5 -316.5t-376.5 -109.5h-570v-614h-151z" />
<glyph unicode="Q" horiz-adv-x="1744" d="M975 311l80 101l229 -176q219 164 219 495q0 309 -194 479q-172 150 -437 150q-264 0 -436 -150q-195 -170 -194 -479q0 -309 194 -479q172 -150 436 -150q164 0 293 62zM1626 -29l-80 -100l-252 195q-184 -102 -422 -103q-334 0 -553 191q-242 209 -241 577 q0 369 241 578q219 190 553 190t553 -190q242 -209 242 -578q0 -387 -260 -590z" />
<glyph unicode="R" horiz-adv-x="1517" d="M160 0v1462h796q475 0 476 -395q0 -123 -72 -219q-78 -104 -215 -135v-4q145 -23 203 -125q49 -86 57 -281q12 -266 51 -303h-164q-35 41 -39 299q-2 193 -82.5 268.5t-271.5 75.5h-588v-643h-151zM311 1323v-541h641q315 0 316 285q0 256 -301 256h-656z" />
<glyph unicode="S" d="M1278 1044h-152q-27 315 -458 316q-182 0 -295 -68q-119 -70 -119 -190q0 -133 133 -197q102 -47 401 -98q256 -43 367 -105q166 -94 166 -282q0 -246 -199 -363q-158 -94 -411 -94q-633 0 -664 520h152q18 -215 161 -305q117 -76 351 -76q446 0 446 291q0 147 -166 215 q-84 33 -366 78q-274 43 -398 127q-137 92 -137 262q0 221 182 332q154 92 396 92q256 0 413 -96q191 -117 197 -359z" />
<glyph unicode="T" horiz-adv-x="1290" d="M569 0v1323h-573v139h1298v-139h-573v-1323h-152z" />
<glyph unicode="U" horiz-adv-x="1593" d="M1450 1462v-897q0 -260 -109 -401q-158 -201 -544 -201q-387 0 -545 201q-109 141 -109 401v897h152v-897q0 -463 502 -463t501 463v897h152z" />
<glyph unicode="V" horiz-adv-x="1402" d="M711 172l559 1290h164l-648 -1462h-163l-654 1462h176z" />
<glyph unicode="W" horiz-adv-x="2162" d="M1612 201l409 1261h164l-491 -1462h-176l-441 1249h-4l-434 -1249h-176l-486 1462h170l406 -1261h4l432 1261h187l432 -1261h4z" />
<glyph unicode="X" horiz-adv-x="1366" d="M-16 0l594 741l-570 721h203l475 -602l490 602h188l-573 -712l591 -750h-200l-500 629l-504 -629h-194z" />
<glyph unicode="Y" horiz-adv-x="1404" d="M627 0v614l-658 848h197l536 -696l537 696h197l-658 -848v-614h-151z" />
<glyph unicode="Z" horiz-adv-x="1327" d="M10 0v139l1086 1184h-1016v139h1220v-139l-1091 -1184h1108v-139h-1307z" />
<glyph unicode="[" horiz-adv-x="720" d="M221 -389v1851h402v-114h-263v-1622h263v-115h-402z" />
<glyph unicode="\" horiz-adv-x="833" d="M713 -37l-707 1536h115l706 -1536h-114z" />
<glyph unicode="]" horiz-adv-x="720" d="M500 1462v-1851h-402v115h262v1622h-262v114h402z" />
<glyph unicode="^" horiz-adv-x="1228" d="M1024 489l-410 801l-409 -801h-115l473 928h103l473 -928h-115z" />
<glyph unicode="_" horiz-adv-x="1024" d="M0 -256v102h1024v-102h-1024z" />
<glyph unicode="`" horiz-adv-x="376" d="M84 1516l235 -291h-124l-297 291h186z" />
<glyph unicode="a" horiz-adv-x="1251" d="M965 412v161q-47 -31 -148 -45q-68 -10 -325 -34q-279 -27 -279 -197q0 -215 307 -215q170 0 299 82q146 94 146 248zM248 737h-139q18 178 124 264q123 96 383 97q260 0 377 -80q111 -78 111 -236v-557q0 -119 84 -119q27 0 80 5v-103q-82 -16 -127 -16q-102 0 -140 63 q-23 39 -24 125h-4q-143 -213 -498 -213q-162 0 -274 70q-139 86 -140 250q0 193 179 270q113 51 355.5 64.5t306 37t63.5 103.5q0 115 -82 162t-271 47q-182 0 -269 -54.5t-95 -179.5z" />
<glyph unicode="b" horiz-adv-x="1366" d="M117 0v1475h151v-623h4q55 106 168 174q121 72 267 72q283 0 438 -172q141 -154 141 -394q0 -227 -127 -380q-154 -184 -452 -185q-172 0 -299 90q-94 66 -136 156h-4v-213h-151zM260 532q0 -203 129 -323q123 -115 318 -115q215 0 329 139q98 119 99 299q0 199 -125 322 q-119 117 -303 117q-217 0 -340 -137q-107 -122 -107 -302z" />
<glyph unicode="c" horiz-adv-x="1251" d="M1049 381h151q-31 -152 -135 -258q-147 -156 -403 -156q-283 0 -445 158q-156 152 -156 407q0 252 150 404q160 162 451 162q246 0 393 -133q115 -104 137 -248h-152q-66 254 -378 254q-219 0 -338 -127q-111 -117 -111 -312q0 -201 118 -319.5t331 -118.5q319 0 387 287 z" />
<glyph unicode="d" horiz-adv-x="1366" d="M1106 532q0 180 -107 302q-123 137 -340 137q-184 0 -303 -117q-125 -123 -125 -322q0 -180 99 -299q115 -139 329 -139q195 0 321 117.5t126 320.5zM1098 0v213h-4q-41 -90 -136 -156q-127 -90 -299 -90q-299 0 -452 185q-127 154 -127 380q0 240 141 394 q156 172 438 172q145 0 267 -72q113 -68 168 -174h4v623h151v-1475h-151z" />
<glyph unicode="e" horiz-adv-x="1327" d="M231 610h877q-31 184 -160 279q-113 82 -278 82q-164 0 -279 -82q-135 -97 -160 -279zM1081 340h152q-121 -373 -574 -373q-299 0 -452 185q-127 154 -127 380q0 240 141 394q156 172 438 172q250 0 404 -119q197 -154 197 -483h-1029q0 -172 113 -283q119 -119 315 -119 q184 0 287 62q94 59 135 184z" />
<glyph unicode="f" horiz-adv-x="645" d="M219 0v950h-231v115h231v141q0 145 76 209q70 59 223 60q76 0 170 -9v-127q-94 8 -141 9q-102 0 -139 -33t-37 -125v-125h301v-115h-301v-950h-152z" />
<glyph unicode="g" horiz-adv-x="1366" d="M1106 555q0 178 -115 291q-123 125 -340 125q-201 0 -319.5 -110.5t-118.5 -305.5q0 -428 451 -428q193 0 317.5 114.5t124.5 313.5zM1102 858v207h151v-1024q0 -268 -194 -393q-152 -98 -404 -99q-508 0 -544 347h139q23 -113 80 -160q92 -72 332 -72q211 0 325.5 98.5 t114.5 288.5v191h-4q-127 -242 -471 -242q-233 0 -383 121q-182 147 -183 434q0 229 142 377q156 166 440 166q348 0 455 -240h4z" />
<glyph unicode="h" horiz-adv-x="1290" d="M117 0v1475h151v-619h4q37 94 150 164q127 78 291 78q461 0 461 -439v-659h-152v686q0 285 -322 285q-432 0 -432 -393v-578h-151z" />
<glyph unicode="i" horiz-adv-x="376" d="M113 0v1065h151v-1065h-151zM113 1249v226h151v-226h-151z" />
<glyph unicode="j" horiz-adv-x="376" d="M-156 -444v127q49 -6 103 -7q98 0 135 41q31 35 31 121v1227h151v-1227q0 -289 -276 -289q-3 1 -144 7zM113 1249v226h151v-226h-151z" />
<glyph unicode="k" horiz-adv-x="1175" d="M117 0v1475h151v-928l650 518h225l-522 -403l561 -662h-201l-473 563l-240 -182v-381h-151z" />
<glyph unicode="l" horiz-adv-x="376" d="M113 0v1475h151v-1475h-151z" />
<glyph unicode="m" horiz-adv-x="2048" d="M1780 0v676q0 295 -318 295q-172 0 -267 -92.5t-95 -249.5v-629h-152v721q0 109 -74 176q-82 74 -229 74q-168 0 -270 -92q-106 -100 -107 -279v-600h-151v1065h151v-197h4q129 229 422 230q164 0 269 -76q86 -63 112 -158q43 90 148 158q123 76 270 76q217 0 332 -103 q106 -98 106 -268v-727h-151z" />
<glyph unicode="n" horiz-adv-x="1290" d="M1022 0v686q0 285 -322 285q-432 0 -432 -393v-578h-151v1065h151v-209h4q37 94 150 164q127 78 291 78q461 0 461 -439v-659h-152z" />
<glyph unicode="o" d="M231 532q0 -197 121 -317.5t332 -120.5t332 121t121 317q0 197 -121 318t-332 121t-332 -121t-121 -318zM80 532q0 240 149 394q164 172 455 172t457 -172q147 -154 147 -394t-147 -393q-166 -172 -457 -172t-455 172q-149 153 -149 393z" />
<glyph unicode="p" horiz-adv-x="1366" d="M117 -414v1479h151v-213h4q113 246 435 246q299 0 452 -185q127 -154 127 -381q0 -240 -141 -393q-156 -172 -438 -172q-145 0 -267 72q-113 68 -168 174h-4v-627h-151zM260 532q0 -180 107 -301q123 -137 340 -137q184 0 306 120t122 318q0 180 -99 299 q-115 139 -329 140q-195 0 -318 -115q-129 -121 -129 -324z" />
<glyph unicode="q" horiz-adv-x="1366" d="M1098 852v213h151v-1479h-151v627h-4q-55 -106 -168 -174q-121 -72 -267 -72q-283 0 -438 172q-141 154 -141 393q0 221 135 381q158 184 432 185q178 0 307 -86q104 -70 140 -160h4zM1106 532q0 203 -129 324q-123 115 -318 115q-215 0 -329 -140q-98 -119 -99 -299 q0 -199 125 -319q119 -119 303 -119q217 0 340 137q107 121 107 301z" />
<glyph unicode="r" horiz-adv-x="757" d="M117 0v1065h151v-244h4q121 276 408 277q45 0 90 -8v-156q-70 12 -139 12q-145 0 -242 -88q-121 -109 -121 -315v-543h-151z" />
<glyph unicode="s" horiz-adv-x="1138" d="M1049 750h-140q-29 125 -114 176q-80 45 -252 45q-307 0 -307 -183q0 -82 75 -112q70 -31 320 -64q258 -35 352 -92q109 -66 109 -215q0 -160 -129 -249t-377 -89q-539 0 -539 367h139q20 -133 107.5 -186.5t292.5 -53.5q354 0 354 203q0 82 -80 121q-86 41 -328 65 q-248 25 -348 91.5t-100 207.5q0 143 113 228q121 88 346 88q477 0 506 -348z" />
<glyph unicode="t" horiz-adv-x="720" d="M219 1065v336h152v-336h301v-115h-301v-704q0 -74 31.5 -104.5t119.5 -30.5q92 0 150 12v-127q-86 -12 -166 -12q-168 0 -232 67q-55 57 -55 197v702h-231v115h231z" />
<glyph unicode="u" horiz-adv-x="1290" d="M1022 0v209h-4q-37 -94 -150 -164q-127 -78 -290 -78q-461 0 -461 439v659h151v-686q0 -285 322 -285q432 0 432 393v578h152v-1065h-152z" />
<glyph unicode="v" horiz-adv-x="1138" d="M569 174l418 891h164l-500 -1065h-164l-499 1065h164z" />
<glyph unicode="w" horiz-adv-x="1820" d="M1315 199l342 866h164l-432 -1065h-164l-322 852l-317 -852h-164l-422 1065h164l338 -872l321 872h164z" />
<glyph unicode="x" horiz-adv-x="1175" d="M-6 0l489 553l-454 512h196l361 -406l358 406h199l-461 -512l500 -553h-201l-395 442l-393 -442h-199z" />
<glyph unicode="y" horiz-adv-x="1138" d="M586 178l401 887h164l-578 -1264q-57 -127 -121.5 -171t-189.5 -44q-100 0 -145 4v127q66 -4 108 -4q84 0 129 27t82 104l70 148l-518 1073h164z" />
<glyph unicode="z" horiz-adv-x="1138" d="M41 0v127l809 811h-762v127h979v-127l-825 -811h856v-127h-1057z" />
<glyph unicode="{" horiz-adv-x="720" d="M98 498v77q72 0 97.5 57.5t25.5 223.5v358q0 248 219 248h119v-78h-100q-98 0 -99 -170v-358q0 -147 -53 -231q-41 -70 -106 -86v-4q66 -16 106 -84q53 -86 53 -234v-358q0 -170 99 -170h100v-78h-119q-219 0 -219 248v358q0 166 -25.5 223.5t-97.5 57.5z" />
<glyph unicode="|" horiz-adv-x="454" d="M176 -37v1536h103v-1536h-103z" />
<glyph unicode="}" horiz-adv-x="720" d="M162 -389v78h100q98 0 98 170v358q0 147 54 234q41 68 106 84v4q-66 16 -106 86q-53 84 -54 231v358q0 170 -98 170h-100v78h119q219 0 219 -248v-358q0 -166 25.5 -223.5t97.5 -57.5v-77q-72 0 -97.5 -57.5t-25.5 -223.5v-358q0 -248 -219 -248h-119z" />
<glyph unicode="~" horiz-adv-x="1228" d="M1014 647l73 -74q-61 -86 -102 -120q-70 -55 -154 -56q-86 0 -208 68q-129 72 -236 72q-104 0 -172 -148l-74 74q92 176 256 176q78 0 228 -66q168 -74 209 -73q84 0 180 147z" />
<glyph d="M1270 1133q-23 39 -55.5 73.5t-92.5 63.5q-68 35 -137.5 44t-128.5 9q-33 0 -79 -4t-96 -18.5t-101.5 -42t-92.5 -74.5t-68.5 -115t-37.5 -135h780l-57 -103h-737q-10 -111 0 -219h624l-57 -102h-557q10 -72 36.5 -142.5t69.5 -123.5q39 -49 84 -79t91.5 -45.5 t91.5 -20.5t88 -5q84 0 155.5 15.5t149.5 56.5q55 31 98 67.5t78 81.5v-176q-31 -29 -71 -57.5t-85 -48.5q-72 -33 -163 -49.5t-171 -16.5q-53 0 -113.5 7.5t-120.5 29t-118.5 60t-109.5 100.5q-53 66 -91 157t-51 189h-205l58 102h137q-10 109 0 219h-195l58 103h151 q14 86 53.5 177t102.5 161q55 61 117.5 96t126 53.5t123 23.5t108.5 5q66 0 153 -11.5t173 -52.5q59 -29 98 -64.5t64 -66.5z" />
<glyph unicode="&#x20ac;" d="M1270 1133q-23 39 -55.5 73.5t-92.5 63.5q-68 35 -137.5 44t-128.5 9q-33 0 -79 -4t-96 -18.5t-101.5 -42t-92.5 -74.5t-68.5 -115t-37.5 -135h780l-57 -103h-737q-10 -111 0 -219h624l-57 -102h-557q10 -72 36.5 -142.5t69.5 -123.5q39 -49 84 -79t91.5 -45.5 t91.5 -20.5t88 -5q84 0 155.5 15.5t149.5 56.5q55 31 98 67.5t78 81.5v-176q-31 -29 -71 -57.5t-85 -48.5q-72 -33 -163 -49.5t-171 -16.5q-53 0 -113.5 7.5t-120.5 29t-118.5 60t-109.5 100.5q-53 66 -91 157t-51 189h-205l58 102h137q-10 109 0 219h-195l58 103h151 q14 86 53.5 177t102.5 161q55 61 117.5 96t126 53.5t123 23.5t108.5 5q66 0 153 -11.5t173 -52.5q59 -29 98 -64.5t64 -66.5z" />
<glyph horiz-adv-x="1327" d="M10 0v139l1086 1184h-1016v139h1220v-139l-1091 -1184h1108v-139h-1307zM1038 1831l-293 -291h-164l-292 291h153l221 -207l222 207h153z" />
<glyph unicode="&#x17d;" horiz-adv-x="1327" d="M10 0v139l1086 1184h-1016v139h1220v-139l-1091 -1184h1108v-139h-1307zM1038 1831l-293 -291h-164l-292 291h153l221 -207l222 207h153z" />
<glyph horiz-adv-x="1138" d="M41 0v127l809 811h-762v127h979v-127l-825 -811h856v-127h-1057zM944 1516l-293 -291h-164l-292 291h153l221 -207l222 207h153z" />
<glyph unicode="&#x17e;" horiz-adv-x="1138" d="M41 0v127l809 811h-762v127h979v-127l-825 -811h856v-127h-1057zM944 1516l-293 -291h-164l-292 291h153l221 -207l222 207h153z" />
<glyph unicode="&#xa1;" horiz-adv-x="606" d="M215 872v226h176v-226h-176zM221 -365v388l37 696h90l37 -696v-388h-164z" />
<glyph unicode="&#xa2;" d="M657 96v873q-195 -18 -299 -148q-92 -115 -92 -289q0 -186 101.5 -303t289.5 -133zM657 -254v223q-258 16 -403 172q-139 150 -139 391q0 203 116 357q147 190 426 209v172h91v-172q229 -10 366 -140q109 -102 131 -241h-151q-63 240 -346 254v-877q291 18 354 287h151 q-31 -145 -129 -252q-139 -152 -376 -162v-221h-91z" />
<glyph unicode="&#xa3;" d="M109 655v90h147q-98 170 -98 267q0 193 147.5 315.5t403.5 122.5q268 0 411 -127q137 -125 137 -344h-151q0 178 -133 270q-111 74 -277 74q-156 0 -266 -78q-121 -86 -121 -225q0 -72 43 -162l56 -113h452v-90h-416q41 -88 41 -190q0 -78 -63.5 -177.5t-147.5 -156.5 l5 -4q141 57 231 57q70 0 209 -39t203 -39q127 0 301 134l51 -127q-41 -47 -135 -93q-115 -53 -217 -53q-80 0 -240 45t-231 45q-137 0 -285 -86l-72 117q100 70 170 166q82 113 82 219q0 51 -53 182h-184z" />
<glyph unicode="&#xa4;" d="M176 279l111 114q-111 131 -111 316q0 184 111 315l-111 115l78 78l113 -113q137 113 317 113t317 -113l113 113l78 -78l-111 -115q111 -131 111 -315t-111 -316l111 -114l-78 -78l-113 112q-137 -113 -317 -112q-180 0 -317 112l-113 -112zM279 709q0 -166 119.5 -286 t285.5 -120t286 120t120 286t-120 285.5t-286 119.5t-285.5 -119.5t-119.5 -285.5z" />
<glyph unicode="&#xa5;" d="M608 397v197l-16 22h-406v103h328l-528 698h176l522 -696l522 696h176l-528 -698h328v-103h-406l-16 -22v-197h422v-102h-422v-295h-152v295h-422v102h422z" />
<glyph unicode="&#xa6;" horiz-adv-x="454" d="M176 -37v563h103v-563h-103zM176 936v563h103v-563h-103z" />
<glyph unicode="&#xa7;" horiz-adv-x="1366" d="M199 35h151q14 -264 355 -264q121 0 200 45q88 51 88 143q0 84 -86 150q-61 49 -225 118l-262 113q-164 70 -232 131q-88 78 -88 191q0 233 244 303q-121 80 -121 206q0 141 94 228q113 100 338 100q211 0 334 -86q137 -96 137 -285h-151q-2 92 -57 154q-82 90 -263 90 q-281 0 -280 -176q0 -82 94 -147q57 -39 223 -109l269 -113q156 -66 221 -127q84 -82 84 -208q0 -129 -88 -207q-51 -43 -156 -82q123 -86 123 -228q0 -137 -105 -227q-121 -104 -335 -104q-479 0 -506 391zM240 698q0 -88 69 -141q51 -39 223 -113q248 -106 398 -180 q51 0 114 47q82 61 82 158q0 119 -174 211l-516 223q-53 -8 -114 -55q-82 -64 -82 -150z" />
<glyph unicode="&#xa8;" horiz-adv-x="376" d="M-119 1237v225h152v-225h-152zM344 1237v225h152v-225h-152z" />
<glyph unicode="&#xa9;" horiz-adv-x="1638" d="M154 731q0 -283 192.5 -480.5t472.5 -197.5q281 0 473.5 198t192.5 482q0 281 -192.5 478.5t-473.5 197.5t-473 -197.5t-192 -480.5zM1118 573h115q-37 -147 -141.5 -238t-247.5 -91q-209 0 -337 139t-128 348q0 215 123 350.5t336 135.5q156 0 262 -82q113 -88 133 -238 h-115q-18 96 -93 156.5t-187 60.5q-162 0 -253 -107.5t-91 -275.5q0 -158 92 -268q100 -117 258 -117q109 0 183.5 63.5t90.5 163.5zM51 731q0 317 225.5 542.5t542.5 225.5t542.5 -225t225.5 -543q0 -317 -225 -542.5t-543 -225.5q-317 0 -542.5 225.5t-225.5 542.5z" />
<glyph unicode="&#xaa;" horiz-adv-x="813" d="M614 1051v79q-47 -31 -264 -45q-117 -8 -160 -36q-35 -23 -34 -76q0 -121 182 -121q111 0 188 49q88 56 88 150zM823 885v-78q-74 -8 -94 -8q-68 0 -90 32q-14 20 -16 72h-5q-49 -129 -309 -129q-104 0 -178 43q-90 51 -90 150q0 193 360 209q137 6 175 19t38 52 q0 61 -48 87t-169 26q-217 0 -225 -127h-102q27 217 331 217q315 0 316 -190v-312q0 -72 55 -71q18 0 51 8z" />
<glyph unicode="&#xab;" horiz-adv-x="1024" d="M528 487v148l322 276v-157l-232 -193l232 -192v-158zM150 487v148l321 276v-157l-231 -193l231 -192v-158z" />
<glyph unicode="&#xac;" horiz-adv-x="1228" d="M1030 221v445h-934v102h1037v-547h-103z" />
<glyph unicode="&#xad;" horiz-adv-x="909" d="M143 485v152h623v-152h-623z" />
<glyph unicode="&#xae;" horiz-adv-x="1638" d="M51 731q0 317 225.5 542.5t542.5 225.5t542.5 -225t225.5 -543q0 -317 -225 -542.5t-543 -225.5q-317 0 -542.5 225.5t-225.5 542.5zM154 731q0 -283 192.5 -480.5t472.5 -197.5q281 0 473.5 198t192.5 482q0 281 -192.5 478.5t-473.5 197.5t-473 -197.5t-192 -480.5z M1098 274l-269 406h-194v-406h-103v914h351q297 0 297 -254q0 -215 -230 -254l275 -406h-127zM635 1098v-328h227q215 0 215 166q0 162 -215 162h-227z" />
<glyph unicode="&#xaf;" horiz-adv-x="376" d="M-207 1313v114h791v-114h-791z" />
<glyph unicode="&#xb0;" horiz-adv-x="819" d="M117 1157q0 121 86 207t207 86t206.5 -86t85.5 -207t-86 -207t-206 -86q-121 0 -207 86t-86 207zM207 1157q0 -84 59.5 -143.5t143.5 -59.5t143 59.5t59 143.5t-59 143.5t-143 59.5t-143.5 -59.5t-59.5 -143.5z" />
<glyph unicode="&#xb1;" horiz-adv-x="1228" d="M563 664v372h103v-372h467v-103h-467v-373h-103v373h-467v103h467zM96 0v102h1037v-102h-1037z" />
<glyph unicode="&#xb2;" horiz-adv-x="888" d="M791 688v-102h-721q12 96 59 157q70 90 252 181q168 82 221 129q63 55 64 135q0 172 -220 172q-238 0 -241 -219h-115q0 309 356 309q174 0 263 -84q72 -72 71 -178q0 -172 -215 -277q-207 -98 -273.5 -140t-82.5 -83h582z" />
<glyph unicode="&#xb3;" horiz-adv-x="888" d="M381 991v90q16 -4 65 -4q217 0 218 137q0 68 -58.5 107t-148.5 39q-246 0 -246 -197h-115q4 125 88 203q96 84 273 84q135 0 221 -53q100 -61 100 -183q0 -63 -43 -110q-49 -55 -129 -64v-4q90 -4 149.5 -61t59.5 -152q0 -135 -108 -205q-92 -57 -238 -57 q-395 0 -395 297h114q0 -207 287 -207q113 0 174 58q51 45 51 110q0 104 -100 144q-65 24 -219 28z" />
<glyph unicode="&#xb4;" horiz-adv-x="376" d="M57 1225l236 291h186l-297 -291h-125z" />
<glyph unicode="&#xb5;" horiz-adv-x="1290" d="M1022 0v209h-4q-37 -94 -150 -164q-127 -78 -290 -78q-211 0 -310 103v-484h-151v1479h151v-686q0 -147 99 -221q84 -63 223 -64q432 0 432 393v578h152v-1065h-152z" />
<glyph unicode="&#xb6;" horiz-adv-x="1228" d="M510 -319v991q-178 0 -301 114.5t-123 274.5q0 193 120 297t337 104h444v-1781h-115v1691h-247v-1691h-115z" />
<glyph unicode="&#xb7;" horiz-adv-x="569" d="M150 639q0 55 39.5 95t95.5 40q55 0 95 -40t40 -95t-40 -95t-95 -40t-95 40t-40 95z" />
<glyph unicode="&#x2219;" horiz-adv-x="569" d="M150 639q0 55 39.5 95t95.5 40q55 0 95 -40t40 -95t-40 -95t-95 -40t-95 40t-40 95z" />
<glyph unicode="&#xb8;" horiz-adv-x="376" d="M49 -160l117 164h84l-86 -117l4 -4q31 10 82 11q80 0 128 -38t48 -102q0 -66 -71.5 -110.5t-186.5 -44.5q-98 0 -203 34l25 72q100 -29 170 -29q139 0 139 78q0 74 -106 74q-63 0 -109 -23z" />
<glyph unicode="&#xb9;" horiz-adv-x="591" d="M299 586v626h-272v78h65q109 0 152 25q57 33 80 135h90v-864h-115z" />
<glyph unicode="&#xba;" horiz-adv-x="888" d="M166 1114q0 -115 75.5 -182.5t202.5 -67.5t203 67.5t76 182.5q0 113 -76 179.5t-203 66.5t-202.5 -66.5t-75.5 -179.5zM51 1114q0 141 96 234q109 102 297 102t297 -102q96 -92 97 -234q0 -143 -97 -237q-106 -102 -297 -103q-190 0 -297 103q-96 94 -96 237z" />
<glyph unicode="&#xbb;" horiz-adv-x="1024" d="M406 561l-232 193v157l322 -276v-148l-322 -276v158zM784 561l-231 193v157l321 -276v-148l-321 -276v158z" />
<glyph unicode="&#xbc;" horiz-adv-x="2048" d="M1671 293v420h-4l-369 -420h373zM1671 0v203h-487v90l499 571h103v-571h164v-90h-164v-203h-115zM360 -33l871 1483h127l-871 -1483h-127zM299 586v626h-272v78h65q109 0 152 25q57 33 80 135h90v-864h-115z" />
<glyph unicode="&#xbd;" horiz-adv-x="2048" d="M360 -33l871 1483h127l-871 -1483h-127zM299 586v626h-272v78h65q109 0 152 25q57 33 80 135h90v-864h-115zM1950 102v-102h-721q12 96 59 158q70 90 252 180q168 82 221 129q63 55 64 135q0 172 -219 172q-238 0 -242 -213h-115q0 303 357 303q174 0 262 -84 q72 -72 71 -178q0 -172 -215 -276q-207 -98 -273.5 -140.5t-82.5 -83.5h582z" />
<glyph unicode="&#xbe;" horiz-adv-x="2048" d="M1671 293v420h-4l-369 -420h373zM1671 0v203h-487v90l499 571h103v-571h164v-90h-164v-203h-115zM569 -33l871 1483h127l-871 -1483h-127zM381 991v90q16 -4 65 -4q217 0 218 137q0 68 -58.5 107t-148.5 39q-246 0 -246 -197h-115q4 125 88 203q96 84 273 84 q135 0 221 -53q100 -61 100 -183q0 -63 -43 -110q-49 -55 -129 -64v-4q90 -4 149.5 -61t59.5 -152q0 -135 -108 -205q-92 -57 -238 -57q-395 0 -395 297h114q0 -207 287 -207q113 0 174 58q51 45 51 110q0 104 -100 144q-65 24 -219 28z" />
<glyph unicode="&#xbf;" horiz-adv-x="1327" d="M1065 92h152q0 -213 -132 -348q-143 -145 -399 -145q-223 0 -367 100q-164 115 -163 321q0 131 71 222q53 68 222 186q129 92 159 141q25 43 25 150h139q0 -158 -39 -217q-35 -51 -229 -197q-104 -78 -137 -119q-59 -70 -60 -166q0 -129 106.5 -205.5t272.5 -76.5 q373 0 379 354zM791 1098v-226h-177v226h177z" />
<glyph unicode="&#xc0;" horiz-adv-x="1478" d="M1059 584l-322 727l-325 -727h647zM1315 0l-195 444h-770l-198 -444h-164l663 1462h176l664 -1462h-176zM635 1831l235 -291h-124l-297 291h186z" />
<glyph unicode="&#xc1;" horiz-adv-x="1478" d="M1059 584l-322 727l-325 -727h647zM1315 0l-195 444h-770l-198 -444h-164l663 1462h176l664 -1462h-176zM608 1540l236 291h186l-297 -291h-125z" />
<glyph unicode="&#xc2;" horiz-adv-x="1478" d="M1059 584l-322 727l-325 -727h647zM1315 0l-195 444h-770l-198 -444h-164l663 1462h176l664 -1462h-176zM365 1540l292 291h164l293 -291h-153l-222 207l-221 -207h-153z" />
<glyph unicode="&#xc3;" horiz-adv-x="1478" d="M1059 584l-322 727l-325 -727h647zM1315 0l-195 444h-770l-198 -444h-164l663 1462h176l664 -1462h-176zM1028 1796h90q-16 -90 -55 -144q-55 -78 -156 -77q-74 0 -183.5 53t-162.5 53q-96 0 -110 -106h-90q47 221 210 221q74 0 183.5 -53.5t163.5 -53.5q96 1 110 107z " />
<glyph unicode="&#xc4;" horiz-adv-x="1478" d="M1059 584l-322 727l-325 -727h647zM1315 0l-195 444h-770l-198 -444h-164l663 1462h176l664 -1462h-176zM432 1552v225h152v-225h-152zM895 1552v225h152v-225h-152z" />
<glyph unicode="&#xc5;" horiz-adv-x="1478" d="M1059 584l-322 727l-325 -727h647zM1315 0l-195 444h-770l-198 -444h-164l663 1462h176l664 -1462h-176zM514 1726q0 92 65.5 158.5t159.5 66.5q92 0 159 -66.5t67 -158.5t-66.5 -158.5t-159.5 -66.5q-94 0 -159.5 66.5t-65.5 158.5zM592 1726q0 -61 43 -104t104 -43 t104.5 43t43.5 104t-43 104.5t-105 43.5q-61 0 -104 -43.5t-43 -104.5z" />
<glyph unicode="&#xc6;" horiz-adv-x="2238" d="M1081 614v709h-108l-455 -709h563zM-47 0l938 1462h1274v-139h-932v-496h887v-139h-887v-549h942v-139h-1094v475h-649l-303 -475h-176z" />
<glyph unicode="&#xc7;" horiz-adv-x="1669" d="M1434 557h151q-25 -254 -215 -418q-201 -174 -504 -176l-55 -76l4 -4q31 10 82 11q80 0 128 -38t48 -102q0 -66 -71.5 -110.5t-186.5 -44.5q-98 0 -203 34l25 72q100 -29 170 -29q139 0 139 78q0 74 -106 74q-63 0 -109 -23l-35 35l88 127q-324 23 -512 227.5t-188 536.5 q0 295 174 510q213 258 604 258q268 0 459 -121q221 -141 252 -409h-152q-33 197 -196 301q-147 90 -363 90q-283 0 -442 -154q-172 -166 -172 -475q0 -270 141 -436q162 -193 473 -193q488 0 572 455z" />
<glyph unicode="&#xc8;" horiz-adv-x="1402" d="M160 0v1462h1163v-139h-1012v-496h975v-139h-975v-549h1028v-139h-1179zM598 1831l235 -291h-124l-297 291h186z" />
<glyph unicode="&#xc9;" horiz-adv-x="1402" d="M160 0v1462h1163v-139h-1012v-496h975v-139h-975v-549h1028v-139h-1179zM571 1540l236 291h186l-297 -291h-125z" />
<glyph unicode="&#xca;" horiz-adv-x="1402" d="M160 0v1462h1163v-139h-1012v-496h975v-139h-975v-549h1028v-139h-1179zM328 1540l292 291h164l293 -291h-153l-222 207l-221 -207h-153z" />
<glyph unicode="&#xcb;" horiz-adv-x="1402" d="M160 0v1462h1163v-139h-1012v-496h975v-139h-975v-549h1028v-139h-1179zM395 1552v225h152v-225h-152zM858 1552v225h152v-225h-152z" />
<glyph unicode="&#xcc;" horiz-adv-x="454" d="M152 0v1462h151v-1462h-151zM123 1831l235 -291h-124l-297 291h186z" />
<glyph unicode="&#xcd;" horiz-adv-x="454" d="M152 0v1462h151v-1462h-151zM96 1540l236 291h186l-297 -291h-125z" />
<glyph unicode="&#xce;" horiz-adv-x="454" d="M152 0v1462h151v-1462h-151zM-147 1540l292 291h164l293 -291h-153l-222 207l-221 -207h-153z" />
<glyph unicode="&#xcf;" horiz-adv-x="454" d="M152 0v1462h151v-1462h-151zM-80 1552v225h152v-225h-152zM383 1552v225h152v-225h-152z" />
<glyph unicode="&#xd0;" horiz-adv-x="1593" d="M135 0v711h-135v114h135v637h711q315 0 481 -191.5t166 -539.5q0 -322 -158 -520q-170 -211 -467 -211h-733zM287 1323v-498h528v-114h-528v-572h553q219 0 344 127q145 152 145 465q0 592 -489 592h-553z" />
<glyph unicode="&#xd1;" horiz-adv-x="1630" d="M135 0v1462h182l1022 -1249h4v1249h152v-1462h-176l-1028 1249h-4v-1249h-152zM1104 1796h90q-16 -90 -55 -144q-55 -78 -156 -77q-74 0 -183.5 53t-162.5 53q-96 0 -110 -106h-90q47 221 210 221q74 0 183.5 -53.5t163.5 -53.5q96 1 110 107z" />
<glyph unicode="&#xd2;" horiz-adv-x="1744" d="M78 731q0 369 241 578q219 190 553 190t553 -190q242 -209 242 -578t-242 -577q-219 -190 -553 -191q-334 0 -553 191q-241 208 -241 577zM242 731q0 -309 194 -479q172 -150 436 -150t437 150q195 170 194 479q0 309 -194 479q-172 150 -437 150q-264 0 -436 -150 q-194 -170 -194 -479zM768 1831l235 -291h-124l-297 291h186z" />
<glyph unicode="&#xd3;" horiz-adv-x="1744" d="M78 731q0 369 241 578q219 190 553 190t553 -190q242 -209 242 -578t-242 -577q-219 -190 -553 -191q-334 0 -553 191q-241 208 -241 577zM242 731q0 -309 194 -479q172 -150 436 -150t437 150q195 170 194 479q0 309 -194 479q-172 150 -437 150q-264 0 -436 -150 q-194 -170 -194 -479zM741 1540l236 291h186l-297 -291h-125z" />
<glyph unicode="&#xd4;" horiz-adv-x="1744" d="M78 731q0 369 241 578q219 190 553 190t553 -190q242 -209 242 -578t-242 -577q-219 -190 -553 -191q-334 0 -553 191q-241 208 -241 577zM242 731q0 -309 194 -479q172 -150 436 -150t437 150q195 170 194 479q0 309 -194 479q-172 150 -437 150q-264 0 -436 -150 q-194 -170 -194 -479zM498 1540l292 291h164l293 -291h-153l-222 207l-221 -207h-153z" />
<glyph unicode="&#xd5;" horiz-adv-x="1744" d="M78 731q0 369 241 578q219 190 553 190t553 -190q242 -209 242 -578t-242 -577q-219 -190 -553 -191q-334 0 -553 191q-241 208 -241 577zM242 731q0 -309 194 -479q172 -150 436 -150t437 150q195 170 194 479q0 309 -194 479q-172 150 -437 150q-264 0 -436 -150 q-194 -170 -194 -479zM1161 1796h90q-16 -90 -55 -144q-55 -78 -156 -77q-74 0 -183.5 53t-162.5 53q-96 0 -110 -106h-90q47 221 210 221q74 0 183.5 -53.5t163.5 -53.5q96 1 110 107z" />
<glyph unicode="&#xd6;" horiz-adv-x="1744" d="M78 731q0 369 241 578q219 190 553 190t553 -190q242 -209 242 -578t-242 -577q-219 -190 -553 -191q-334 0 -553 191q-241 208 -241 577zM242 731q0 -309 194 -479q172 -150 436 -150t437 150q195 170 194 479q0 309 -194 479q-172 150 -437 150q-264 0 -436 -150 q-194 -170 -194 -479zM565 1552v225h152v-225h-152zM1028 1552v225h152v-225h-152z" />
<glyph unicode="&#xd7;" horiz-adv-x="1228" d="M612 590l392 391l73 -74l-391 -389l391 -389l-73 -74l-392 391l-387 -391l-73 74l389 389l-389 389l73 74z" />
<glyph unicode="&#xd8;" horiz-adv-x="1744" d="M377 313l930 897q-170 150 -435 150q-264 0 -436 -150q-195 -170 -194 -479q0 -256 135 -418zM1366 1149l-930 -897q168 -150 436 -150q264 0 437 150q195 170 194 479q0 258 -137 418zM78 25l188 182q-188 209 -188 524q0 369 241 578q219 190 553 190q328 0 545 -182 l191 182l59 -61l-188 -181q188 -201 188 -526q0 -369 -242 -577q-219 -190 -553 -191q-326 0 -544 184l-191 -184z" />
<glyph unicode="&#xd9;" horiz-adv-x="1593" d="M1450 1462v-897q0 -260 -109 -401q-158 -201 -544 -201q-387 0 -545 201q-109 141 -109 401v897h152v-897q0 -463 502 -463t501 463v897h152zM692 1831l235 -291h-124l-297 291h186z" />
<glyph unicode="&#xda;" horiz-adv-x="1593" d="M1450 1462v-897q0 -260 -109 -401q-158 -201 -544 -201q-387 0 -545 201q-109 141 -109 401v897h152v-897q0 -463 502 -463t501 463v897h152zM665 1540l236 291h186l-297 -291h-125z" />
<glyph unicode="&#xdb;" horiz-adv-x="1593" d="M1450 1462v-897q0 -260 -109 -401q-158 -201 -544 -201q-387 0 -545 201q-109 141 -109 401v897h152v-897q0 -463 502 -463t501 463v897h152zM422 1540l292 291h164l293 -291h-153l-222 207l-221 -207h-153z" />
<glyph unicode="&#xdc;" horiz-adv-x="1593" d="M1450 1462v-897q0 -260 -109 -401q-158 -201 -544 -201q-387 0 -545 201q-109 141 -109 401v897h152v-897q0 -463 502 -463t501 463v897h152zM489 1552v225h152v-225h-152zM952 1552v225h152v-225h-152z" />
<glyph unicode="&#xdd;" horiz-adv-x="1404" d="M627 0v614l-658 848h197l536 -696l537 696h197l-658 -848v-614h-151zM571 1540l236 291h186l-297 -291h-125z" />
<glyph unicode="&#xde;" horiz-adv-x="1441" d="M311 1057v-570h586q328 0 328 287q0 283 -297 283h-617zM160 0v1462h151v-266h637q188 0 305 -94q135 -111 136 -328q0 -207 -131.5 -316.5t-376.5 -109.5h-570v-348h-151z" />
<glyph unicode="&#xdf;" horiz-adv-x="1290" d="M545 735v133q61 -6 84 -6q342 0 342 242q0 125 -105 188q-90 55 -237 56q-203 0 -287 -88q-74 -76 -74 -230v-1030h-151v1036q0 438 512 439q268 0 395 -127q98 -96 98 -242q0 -233 -245 -289v-4q319 -57 319 -407q0 -199 -136 -319t-376 -120q-47 0 -156 17v125 q80 -14 131 -15q188 0 291 96q94 88 94 236q0 309 -423 309h-76z" />
<glyph unicode="&#xe0;" horiz-adv-x="1251" d="M965 412v161q-47 -31 -148 -45q-68 -10 -325 -34q-279 -27 -279 -197q0 -215 307 -215q170 0 299 82q146 94 146 248zM248 737h-139q18 178 124 264q123 96 383 97q260 0 377 -80q111 -78 111 -236v-557q0 -119 84 -119q27 0 80 5v-103q-82 -16 -127 -16q-102 0 -140 63 q-23 39 -24 125h-4q-143 -213 -498 -213q-162 0 -274 70q-139 86 -140 250q0 193 179 270q113 51 355.5 64.5t306 37t63.5 103.5q0 115 -82 162t-271 47q-182 0 -269 -54.5t-95 -179.5zM522 1516l235 -291h-124l-297 291h186z" />
<glyph unicode="&#xe1;" horiz-adv-x="1251" d="M965 412v161q-47 -31 -148 -45q-68 -10 -325 -34q-279 -27 -279 -197q0 -215 307 -215q170 0 299 82q146 94 146 248zM248 737h-139q18 178 124 264q123 96 383 97q260 0 377 -80q111 -78 111 -236v-557q0 -119 84 -119q27 0 80 5v-103q-82 -16 -127 -16q-102 0 -140 63 q-23 39 -24 125h-4q-143 -213 -498 -213q-162 0 -274 70q-139 86 -140 250q0 193 179 270q113 51 355.5 64.5t306 37t63.5 103.5q0 115 -82 162t-271 47q-182 0 -269 -54.5t-95 -179.5zM495 1225l236 291h186l-297 -291h-125z" />
<glyph unicode="&#xe2;" horiz-adv-x="1251" d="M965 412v161q-47 -31 -148 -45q-68 -10 -325 -34q-279 -27 -279 -197q0 -215 307 -215q170 0 299 82q146 94 146 248zM248 737h-139q18 178 124 264q123 96 383 97q260 0 377 -80q111 -78 111 -236v-557q0 -119 84 -119q27 0 80 5v-103q-82 -16 -127 -16q-102 0 -140 63 q-23 39 -24 125h-4q-143 -213 -498 -213q-162 0 -274 70q-139 86 -140 250q0 193 179 270q113 51 355.5 64.5t306 37t63.5 103.5q0 115 -82 162t-271 47q-182 0 -269 -54.5t-95 -179.5zM252 1225l292 291h164l293 -291h-153l-222 207l-221 -207h-153z" />
<glyph unicode="&#xe3;" horiz-adv-x="1251" d="M965 412v161q-47 -31 -148 -45q-68 -10 -325 -34q-279 -27 -279 -197q0 -215 307 -215q170 0 299 82q146 94 146 248zM248 737h-139q18 178 124 264q123 96 383 97q260 0 377 -80q111 -78 111 -236v-557q0 -119 84 -119q27 0 80 5v-103q-82 -16 -127 -16q-102 0 -140 63 q-23 39 -24 125h-4q-143 -213 -498 -213q-162 0 -274 70q-139 86 -140 250q0 193 179 270q113 51 355.5 64.5t306 37t63.5 103.5q0 115 -82 162t-271 47q-182 0 -269 -54.5t-95 -179.5zM915 1481h90q-16 -90 -55 -144q-55 -78 -156 -77q-74 0 -183.5 53t-162.5 53 q-96 0 -110 -106h-90q47 221 210 221q74 0 183.5 -53.5t163.5 -53.5q96 1 110 107z" />
<glyph unicode="&#xe4;" horiz-adv-x="1251" d="M965 412v161q-47 -31 -148 -45q-68 -10 -325 -34q-279 -27 -279 -197q0 -215 307 -215q170 0 299 82q146 94 146 248zM248 737h-139q18 178 124 264q123 96 383 97q260 0 377 -80q111 -78 111 -236v-557q0 -119 84 -119q27 0 80 5v-103q-82 -16 -127 -16q-102 0 -140 63 q-23 39 -24 125h-4q-143 -213 -498 -213q-162 0 -274 70q-139 86 -140 250q0 193 179 270q113 51 355.5 64.5t306 37t63.5 103.5q0 115 -82 162t-271 47q-182 0 -269 -54.5t-95 -179.5zM319 1237v225h152v-225h-152zM782 1237v225h152v-225h-152z" />
<glyph unicode="&#xe5;" horiz-adv-x="1251" d="M965 412v161q-47 -31 -148 -45q-68 -10 -325 -34q-279 -27 -279 -197q0 -215 307 -215q170 0 299 82q146 94 146 248zM248 737h-139q18 178 124 264q123 96 383 97q260 0 377 -80q111 -78 111 -236v-557q0 -119 84 -119q27 0 80 5v-103q-82 -16 -127 -16q-102 0 -140 63 q-23 39 -24 125h-4q-143 -213 -498 -213q-162 0 -274 70q-139 86 -140 250q0 193 179 270q113 51 355.5 64.5t306 37t63.5 103.5q0 115 -82 162t-271 47q-182 0 -269 -54.5t-95 -179.5zM401 1411q0 92 65.5 158.5t159.5 66.5q92 0 159 -66.5t67 -158.5t-66.5 -158.5 t-159.5 -66.5q-94 0 -159.5 66.5t-65.5 158.5zM479 1411q0 -61 43 -104t104 -43t104.5 43t43.5 104t-43 104.5t-105 43.5q-61 0 -104 -43.5t-43 -104.5z" />
<glyph unicode="&#xe6;" horiz-adv-x="2199" d="M2126 496h-1010q2 -180 113.5 -291t306.5 -111q332 0 410 246h151q-117 -373 -561 -373q-201 0 -338 92q-121 78 -160 195q-47 -113 -155 -186q-152 -100 -396 -101q-162 0 -274 70q-139 86 -139 250q0 193 178 270q113 51 355.5 64.5t306 37t63.5 103.5q0 115 -82 162 t-270 47q-182 0 -269.5 -54.5t-95.5 -179.5h-139q18 178 125 264q123 96 383 97q221 0 327 -58q92 -49 138 -168q139 225 432 226q250 0 403 -119q197 -153 197 -483zM1116 610h858q-31 184 -159 279q-113 82 -279 82q-186 0 -295 -96.5t-125 -264.5zM977 412v161 q-47 -31 -148 -45q-68 -10 -325 -34q-279 -27 -279 -197q0 -215 307 -215q170 0 299 82q146 94 146 248z" />
<glyph unicode="&#xe7;" horiz-adv-x="1251" d="M1049 381h151q-31 -152 -135 -258q-147 -156 -403 -156h-3l-57 -80l4 -4q31 10 82 11q80 0 128 -38t48 -102q0 -66 -71.5 -110.5t-186.5 -44.5q-98 0 -203 34l25 72q100 -29 170 -29q139 0 139 78q0 74 -106 74q-63 0 -109 -23l-35 35l95 133q-248 20 -384.5 172 t-136.5 387q0 252 150 404q160 162 451 162q246 0 393 -133q115 -104 137 -248h-152q-66 254 -378 254q-219 0 -338 -127q-111 -117 -111 -312q0 -201 118 -319.5t331 -118.5q319 0 387 287z" />
<glyph unicode="&#xe8;" horiz-adv-x="1327" d="M231 610h877q-31 184 -160 279q-113 82 -278 82q-164 0 -279 -82q-135 -97 -160 -279zM1081 340h152q-121 -373 -574 -373q-299 0 -452 185q-127 154 -127 380q0 240 141 394q156 172 438 172q250 0 404 -119q197 -154 197 -483h-1029q0 -172 113 -283q119 -119 315 -119 q184 0 287 62q94 59 135 184zM559 1516l235 -291h-124l-297 291h186z" />
<glyph unicode="&#xe9;" horiz-adv-x="1327" d="M231 610h877q-31 184 -160 279q-113 82 -278 82q-164 0 -279 -82q-135 -97 -160 -279zM1081 340h152q-121 -373 -574 -373q-299 0 -452 185q-127 154 -127 380q0 240 141 394q156 172 438 172q250 0 404 -119q197 -154 197 -483h-1029q0 -172 113 -283q119 -119 315 -119 q184 0 287 62q94 59 135 184zM532 1225l236 291h186l-297 -291h-125z" />
<glyph unicode="&#xea;" horiz-adv-x="1327" d="M231 610h877q-31 184 -160 279q-113 82 -278 82q-164 0 -279 -82q-135 -97 -160 -279zM1081 340h152q-121 -373 -574 -373q-299 0 -452 185q-127 154 -127 380q0 240 141 394q156 172 438 172q250 0 404 -119q197 -154 197 -483h-1029q0 -172 113 -283q119 -119 315 -119 q184 0 287 62q94 59 135 184zM289 1225l292 291h164l293 -291h-153l-222 207l-221 -207h-153z" />
<glyph unicode="&#xeb;" horiz-adv-x="1327" d="M231 610h877q-31 184 -160 279q-113 82 -278 82q-164 0 -279 -82q-135 -97 -160 -279zM1081 340h152q-121 -373 -574 -373q-299 0 -452 185q-127 154 -127 380q0 240 141 394q156 172 438 172q250 0 404 -119q197 -154 197 -483h-1029q0 -172 113 -283q119 -119 315 -119 q184 0 287 62q94 59 135 184zM356 1237v225h152v-225h-152zM819 1237v225h152v-225h-152z" />
<glyph unicode="&#xec;" horiz-adv-x="376" d="M113 0v1065h151v-1065h-151zM84 1516l235 -291h-124l-297 291h186z" />
<glyph unicode="&#xed;" horiz-adv-x="376" d="M113 0v1065h151v-1065h-151zM57 1225l236 291h186l-297 -291h-125z" />
<glyph unicode="&#xee;" horiz-adv-x="376" d="M113 0v1065h151v-1065h-151zM-186 1225l292 291h164l293 -291h-153l-222 207l-221 -207h-153z" />
<glyph unicode="&#xef;" horiz-adv-x="376" d="M113 0v1065h151v-1065h-151zM-119 1237v225h152v-225h-152zM344 1237v225h152v-225h-152z" />
<glyph unicode="&#xf0;" d="M1137 532q0 197 -121 318t-332 121t-332 -121t-121 -318t121 -317.5t332 -120.5t332 120.5t121 317.5zM80 532q0 240 149 394q164 172 455 172q244 0 377 -178h6q-158 283 -397 401l-252 -117l-66 53l232 107q-94 53 -240 98l105 82q147 -43 276 -117l246 113l61 -55 l-231 -107q231 -133 368 -391q119 -225 119 -436q0 -205 -110 -361q-158 -223 -494 -223q-291 0 -455 172q-149 153 -149 393z" />
<glyph unicode="&#xf1;" horiz-adv-x="1290" d="M1022 0v686q0 285 -322 285q-432 0 -432 -393v-578h-151v1065h151v-209h4q37 94 150 164q127 78 291 78q461 0 461 -439v-659h-152zM934 1481h90q-16 -90 -55 -144q-55 -78 -156 -77q-74 0 -183.5 53t-162.5 53q-96 0 -110 -106h-90q47 221 210 221q74 0 183.5 -53.5 t163.5 -53.5q96 1 110 107z" />
<glyph unicode="&#xf2;" d="M231 532q0 -197 121 -317.5t332 -120.5t332 121t121 317q0 197 -121 318t-332 121t-332 -121t-121 -318zM80 532q0 240 149 394q164 172 455 172t457 -172q147 -154 147 -394t-147 -393q-166 -172 -457 -172t-455 172q-149 153 -149 393zM580 1516l235 -291h-124 l-297 291h186z" />
<glyph unicode="&#xf3;" d="M231 532q0 -197 121 -317.5t332 -120.5t332 121t121 317q0 197 -121 318t-332 121t-332 -121t-121 -318zM80 532q0 240 149 394q164 172 455 172t457 -172q147 -154 147 -394t-147 -393q-166 -172 -457 -172t-455 172q-149 153 -149 393zM553 1225l236 291h186l-297 -291 h-125z" />
<glyph unicode="&#xf4;" d="M231 532q0 -197 121 -317.5t332 -120.5t332 121t121 317q0 197 -121 318t-332 121t-332 -121t-121 -318zM80 532q0 240 149 394q164 172 455 172t457 -172q147 -154 147 -394t-147 -393q-166 -172 -457 -172t-455 172q-149 153 -149 393zM310 1225l292 291h164l293 -291 h-153l-222 207l-221 -207h-153z" />
<glyph unicode="&#xf5;" d="M231 532q0 -197 121 -317.5t332 -120.5t332 121t121 317q0 197 -121 318t-332 121t-332 -121t-121 -318zM80 532q0 240 149 394q164 172 455 172t457 -172q147 -154 147 -394t-147 -393q-166 -172 -457 -172t-455 172q-149 153 -149 393zM973 1481h90q-16 -90 -55 -144 q-55 -78 -156 -77q-74 0 -183.5 53t-162.5 53q-96 0 -110 -106h-90q47 221 210 221q74 0 183.5 -53.5t163.5 -53.5q96 1 110 107z" />
<glyph unicode="&#xf6;" d="M231 532q0 -197 121 -317.5t332 -120.5t332 121t121 317q0 197 -121 318t-332 121t-332 -121t-121 -318zM80 532q0 240 149 394q164 172 455 172t457 -172q147 -154 147 -394t-147 -393q-166 -172 -457 -172t-455 172q-149 153 -149 393zM377 1237v225h152v-225h-152z M840 1237v225h152v-225h-152z" />
<glyph unicode="&#xf7;" horiz-adv-x="1228" d="M96 467v102h1037v-102h-1037zM502 940q0 47 33.5 80t78.5 33q47 0 80 -33t33 -80q0 -45 -32.5 -79t-80.5 -34q-45 0 -78.5 34t-33.5 79zM502 96q0 47 33.5 80t78.5 33q47 0 80 -33t33 -80q0 -45 -32.5 -78.5t-80.5 -33.5q-45 0 -78.5 33.5t-33.5 78.5z" />
<glyph unicode="&#xf8;" d="M326 248l667 620q-119 102 -309 103q-211 0 -332 -121t-121 -318q1 -167 95 -284zM80 20l139 130q-139 154 -139 382q0 240 149 394q164 172 455 172q258 0 414 -133l141 133l49 -54l-139 -129q139 -152 139 -383q0 -240 -147 -393q-166 -172 -457 -172q-254 0 -414 133 l-141 -133zM1042 817l-667 -620q115 -102 309 -103q211 0 332 121t121 317q-1 172 -95 285z" />
<glyph unicode="&#xf9;" horiz-adv-x="1290" d="M1022 0v209h-4q-37 -94 -150 -164q-127 -78 -290 -78q-461 0 -461 439v659h151v-686q0 -285 322 -285q432 0 432 393v578h152v-1065h-152zM541 1516l235 -291h-124l-297 291h186z" />
<glyph unicode="&#xfa;" horiz-adv-x="1290" d="M1022 0v209h-4q-37 -94 -150 -164q-127 -78 -290 -78q-461 0 -461 439v659h151v-686q0 -285 322 -285q432 0 432 393v578h152v-1065h-152zM514 1225l236 291h186l-297 -291h-125z" />
<glyph unicode="&#xfb;" horiz-adv-x="1290" d="M1022 0v209h-4q-37 -94 -150 -164q-127 -78 -290 -78q-461 0 -461 439v659h151v-686q0 -285 322 -285q432 0 432 393v578h152v-1065h-152zM271 1225l292 291h164l293 -291h-153l-222 207l-221 -207h-153z" />
<glyph unicode="&#xfc;" horiz-adv-x="1290" d="M1022 0v209h-4q-37 -94 -150 -164q-127 -78 -290 -78q-461 0 -461 439v659h151v-686q0 -285 322 -285q432 0 432 393v578h152v-1065h-152zM338 1237v225h152v-225h-152zM801 1237v225h152v-225h-152z" />
<glyph unicode="&#xfd;" horiz-adv-x="1138" d="M586 178l401 887h164l-578 -1264q-57 -127 -121.5 -171t-189.5 -44q-100 0 -145 4v127q66 -4 108 -4q84 0 129 27t82 104l70 148l-518 1073h164zM438 1225l236 291h186l-297 -291h-125z" />
<glyph unicode="&#xfe;" horiz-adv-x="1366" d="M117 -414v1889h151v-623h4q129 246 435 246q299 0 452 -185q127 -154 127 -381q0 -240 -141 -393q-156 -172 -438 -172q-145 0 -267 72q-113 68 -168 174h-4v-627h-151zM260 532q0 -180 107 -301q123 -137 340 -137q184 0 306 120t122 318q0 180 -99 299 q-115 139 -329 140q-195 0 -318 -115q-129 -121 -129 -324z" />
<glyph unicode="&#xff;" horiz-adv-x="1138" d="M586 178l401 887h164l-578 -1264q-57 -127 -121.5 -171t-189.5 -44q-100 0 -145 4v127q66 -4 108 -4q84 0 129 27t82 104l70 148l-518 1073h164zM262 1237v225h152v-225h-152zM725 1237v225h152v-225h-152z" />
<glyph unicode="&#x152;" horiz-adv-x="2390" d="M1262 365v763q0 57 -111 134q-141 98 -348 98q-240 0 -393 -160q-168 -174 -168 -469q0 -309 161 -475q147 -154 400 -154q207 0 348 111q111 86 111 152zM1262 0v160q-168 -197 -459 -197q-317 0 -512 191q-213 207 -213 577q0 315 182 531q203 238 543 237 q313 0 454 -176h5v139h1054v-139h-903v-496h856v-139h-856v-549h914v-139h-1065z" />
<glyph unicode="&#x153;" horiz-adv-x="2238" d="M2001 340h151q-51 -158 -174 -256q-145 -117 -352 -117q-176 0 -305 66q-145 74 -195 215q-152 -281 -512 -281q-250 0 -402.5 162t-152.5 403q0 233 148 394q160 172 416 172q213 0 344 -84q100 -68 170 -203q131 287 489 287q211 0 359 -119q195 -160 194 -483h-973 q6 -401 420 -402q295 0 375 246zM211 532q0 -195 117.5 -315.5t316.5 -122.5q197 -2 309.5 110.5t112.5 327.5q0 190 -96 308q-111 131 -320 131q-205 0 -322.5 -121t-117.5 -318zM1206 610h822q-31 182 -156 279q-106 82 -246 82q-357 -1 -420 -361z" />
<glyph unicode="&#x178;" horiz-adv-x="1404" d="M627 0v614l-658 848h197l536 -696l537 696h197l-658 -848v-614h-151zM395 1552v225h152v-225h-152zM858 1552v225h152v-225h-152z" />
<glyph unicode="&#x2c6;" horiz-adv-x="376" d="M-186 1225l292 291h164l293 -291h-153l-222 207l-221 -207h-153z" />
<glyph unicode="&#x2dc;" horiz-adv-x="376" d="M477 1481h90q-16 -90 -55 -144q-55 -78 -156 -77q-74 0 -183.5 53t-162.5 53q-96 0 -110 -106h-90q47 221 210 221q74 0 183.5 -53.5t163.5 -53.5q96 1 110 107z" />
<glyph unicode="&#x2000;" horiz-adv-x="974" />
<glyph unicode="&#x2001;" horiz-adv-x="1951" />
<glyph unicode="&#x2002;" horiz-adv-x="974" />
<glyph unicode="&#x2003;" horiz-adv-x="1951" />
<glyph unicode="&#x2004;" horiz-adv-x="649" />
<glyph unicode="&#x2005;" horiz-adv-x="487" />
<glyph unicode="&#x2006;" horiz-adv-x="323" />
<glyph unicode="&#x2007;" horiz-adv-x="323" />
<glyph unicode="&#x2008;" horiz-adv-x="243" />
<glyph unicode="&#x2009;" horiz-adv-x="389" />
<glyph unicode="&#x200a;" horiz-adv-x="106" />
<glyph unicode="&#x2010;" horiz-adv-x="909" d="M143 485v152h623v-152h-623z" />
<glyph unicode="&#x2011;" horiz-adv-x="909" d="M143 485v152h623v-152h-623z" />
<glyph unicode="&#x2012;" horiz-adv-x="909" d="M143 485v152h623v-152h-623z" />
<glyph unicode="&#x2013;" horiz-adv-x="1024" d="M0 498v127h1024v-127h-1024z" />
<glyph unicode="&#x2014;" horiz-adv-x="2048" d="M0 498v127h2048v-127h-2048z" />
<glyph unicode="&#x2018;" horiz-adv-x="569" d="M197 950v230q0 229 194 282v-78q-57 -25 -76 -79q-16 -41 -16 -129h74v-226h-176z" />
<glyph unicode="&#x2019;" horiz-adv-x="569" d="M197 1237v225h176v-229q0 -229 -195 -283v78q57 25 78 80q14 41 14 129h-73z" />
<glyph unicode="&#x201a;" horiz-adv-x="569" d="M197 0v225h176v-229q0 -229 -195 -283v78q57 25 78 80q14 41 14 129h-73z" />
<glyph unicode="&#x201c;" horiz-adv-x="833" d="M512 950v230q0 229 195 282v-78q-57 -25 -76 -79q-16 -41 -17 -129h74v-226h-176zM145 950v230q0 229 195 282v-78q-57 -25 -76 -79q-16 -41 -16 -129h74v-226h-177z" />
<glyph unicode="&#x201d;" horiz-adv-x="833" d="M512 1237v225h176v-229q0 -229 -194 -283v78q57 25 77 80q14 41 15 129h-74zM145 1237v225h177v-229q0 -229 -195 -283v78q57 25 78 80q14 41 14 129h-74z" />
<glyph unicode="&#x201e;" horiz-adv-x="833" d="M145 0v225h177v-229q0 -229 -195 -283v78q57 25 78 80q14 41 14 129h-74zM512 0v225h176v-229q0 -229 -194 -283v78q57 25 77 80q14 41 15 129h-74z" />
<glyph unicode="&#x2022;" horiz-adv-x="1026" d="M147 731q0 152 106.5 259.5t258.5 107.5t259.5 -107.5t107.5 -259.5t-107.5 -258t-259.5 -106t-258.5 106t-106.5 258z" />
<glyph unicode="&#x2026;" horiz-adv-x="2048" d="M254 0v225h176v-225h-176zM936 0v225h176v-225h-176zM1618 0v225h176v-225h-176z" />
<glyph unicode="&#x202f;" horiz-adv-x="389" />
<glyph unicode="&#x2039;" horiz-adv-x="645" d="M150 487v148l321 276v-157l-231 -193l231 -192v-158z" />
<glyph unicode="&#x203a;" horiz-adv-x="645" d="M406 561l-232 193v157l322 -276v-148l-322 -276v158z" />
<glyph unicode="&#x205f;" horiz-adv-x="487" />
<glyph unicode="&#x2122;" horiz-adv-x="2027" d="M362 618v754h-276v90h655v-90h-276v-754h-103zM1339 778l263 684h176v-844h-103v754h-4l-305 -754h-61l-306 754h-4v-754h-102v844h176z" />
<glyph unicode="&#xe000;" horiz-adv-x="1065" d="M0 1065h1065v-1065h-1065v1065z" />
<glyph unicode="&#xfb01;" horiz-adv-x="1021" d="M758 0v1065h151v-1065h-151zM758 1249v226h151v-226h-151zM219 0v950h-231v115h231v141q0 145 76 209q70 59 223 60q76 0 170 -9v-127q-94 8 -141 9q-102 0 -139 -33t-37 -125v-125h301v-115h-301v-950h-152z" />
<glyph unicode="&#xfb02;" horiz-adv-x="1021" d="M758 0v1475h151v-1475h-151zM219 0v950h-231v115h231v141q0 145 76 209q70 59 223 60q76 0 170 -9v-127q-94 8 -141 9q-102 0 -139 -33t-37 -125v-125h301v-115h-301v-950h-152z" />
<glyph unicode="&#xfb03;" horiz-adv-x="1667" d="M1403 0v1065h151v-1065h-151zM1403 1249v226h151v-226h-151zM864 0v950h-231v115h231v141q0 145 76 209q70 59 223 60q76 0 170 -9v-127q-94 8 -141 9q-102 0 -139 -33t-37 -125v-125h301v-115h-301v-950h-152zM219 0v950h-231v115h231v141q0 145 76 209q70 59 223 60 q76 0 170 -9v-127q-94 8 -141 9q-102 0 -139 -33t-37 -125v-125h301v-115h-301v-950h-152z" />
<glyph unicode="&#xfb04;" horiz-adv-x="1667" d="M1403 0v1475h151v-1475h-151zM864 0v950h-231v115h231v141q0 145 76 209q70 59 223 60q76 0 170 -9v-127q-94 8 -141 9q-102 0 -139 -33t-37 -125v-125h301v-115h-301v-950h-152zM219 0v950h-231v115h231v141q0 145 76 209q70 59 223 60q76 0 170 -9v-127q-94 8 -141 9 q-102 0 -139 -33t-37 -125v-125h301v-115h-301v-950h-152z" />
<glyph horiz-adv-x="376" d="M-37 1370q0 92 65.5 158.5t159.5 66.5q92 0 159 -66.5t67 -158.5t-66.5 -158.5t-159.5 -66.5q-94 0 -159.5 66.5t-65.5 158.5zM41 1370q0 -61 43 -104t104 -43t104.5 43t43.5 104t-43 104.5t-105 43.5q-61 0 -104 -43.5t-43 -104.5z" />
<glyph horiz-adv-x="376" d="M563 1516l-293 -291h-164l-292 291h153l221 -207l222 207h153z" />
<glyph horiz-adv-x="376" d="M113 0v1065h151v-1065h-151z" />
</font>
</defs>
</svg>
