<?xml version="1.0" standalone="no"?>
<!DOCTYPE svg PUBLIC "-//W3C//DTD SVG 1.1//EN" "http://www.w3.org/Graphics/SVG/1.1/DTD/svg11.dtd" >
<svg xmlns="http://www.w3.org/2000/svg">
<metadata>
This is a custom SVG webfont generated by Font Squirrel.
Copyright   : Copyright C 2007 Yusuke Kamiyamane All rights reserved
Foundry     : Yusuke Kamiyamane
</metadata>
<defs>
<font id="webfont3aXqvwel" horiz-adv-x="1536" >
<font-face units-per-em="2048" ascent="1638" descent="-410" />
<missing-glyph horiz-adv-x="1024" />
<glyph unicode=" "  horiz-adv-x="1024" />
<glyph unicode="&#x09;" horiz-adv-x="1024" />
<glyph unicode="&#xa0;" horiz-adv-x="1024" />
<glyph unicode="!" horiz-adv-x="512" d="M0 1792h256v-1280h-256v1280zM0 256h256v-256h-256v256z" />
<glyph unicode="&#x22;" horiz-adv-x="1024" d="M0 1792h256v-512h-256v512zM512 1792h256v-512h-256v512z" />
<glyph unicode="#" d="M0 1280h256v512h256v-512h256v512h256v-512h256v-258h-256v-254h256v-258h-256v-510h-256v510h-256v-510h-256v510h-256v258h256v254h-256v258zM768 768v254h-256v-254h256zM768 512h256v254h-51v-203h-205v-51zM512 512v254h-51v-203h-205v-51h256zM768 1024h256v254 h-51v-203h-205v-51zM512 1024v254h-51v-203h-205v-51h256z" />
<glyph unicode="$" d="M0 256h512v510h-256v156h-102v102h-154v512h154v102h102v154h256v256h256v-256h512v-258h-512v-510h256v-154h102v-102h154v-512h-154v-102h-102v-156h-256v-254h-256v254h-512v258zM512 1534h-256v-510h256v510zM1024 256v510h-256v-510h256zM768 768v254h-51v-203h-205 v-51h256zM768 1536v254h-51v-203h-205v-51h256zM768 0v254h-51v-203h-205v-51h256z" />
<glyph unicode="%" horiz-adv-x="2048" d="M0 1280v256h154v102h102v154h256v-154h102v-102h154v-256h-154v-102h-102v-154h-256v154h-102v102h-154zM1024 256v256h154v102h102v154h256v-154h102v-102h154v-256h-154v-102h-102v-154h-256v154h-102v102h-154zM256 1536v-256h256v256h-256zM1280 512v-256h256v256 h-256zM1280 1485v307h256v-256h-154v-102h-102v-412h-256v-256h-256v-254h-51v-205h-205v-307h-256v256h154v102h102v410h256v256h256v256h51v205h205z" />
<glyph unicode="&#x26;" d="M256 154h-102v102h-154v512h256v154h-102v102h-154v512h154v102h102v154h768v-256h-768v-512h512v-154h102v-102h154v256h256v-258h-256v-510h256v-256h-256v254h-154v-100h-102v-154h-512v154zM768 256v510h-512v-510h512z" />
<glyph unicode="'" horiz-adv-x="512" d="M0 1792h256v-512h-256v512z" />
<glyph unicode="(" horiz-adv-x="768" d="M256 0h256v-256h-256v154h-102v102h-154v1792h154v102h102v154h256v-256h-256v-1792z" />
<glyph unicode=")" horiz-adv-x="768" d="M256 1792h-256v256h256v-154h102v-102h154v-1792h-154v-102h-102v-154h-256v256h256v1792z" />
<glyph unicode="*" d="M512 1024v512h256v-512h256v256h256v-258h-256v-254h256v-256h-256v254h-256v-510h-256v510h-256v-254h-256v256h256v254h-256v258h256v-256h256zM768 768v254h-51v-203h-205v-51h256z" />
<glyph unicode="+" d="M0 1024h512v512h256v-512h512v-258h-512v-510h-256v510h-512v258zM768 768v254h-51v-203h-205v-51h256z" />
<glyph unicode="," horiz-adv-x="768" d="M256 0v-205h-205v205h103v102h102v154h256v-256h-256z" />
<glyph unicode="-" horiz-adv-x="1024" d="M0 768h768v-256h-768v256z" />
<glyph unicode="." horiz-adv-x="768" d="M256 256h256v-256h-256v256z" />
<glyph unicode="/" d="M1024 1485v307h256v-256h-154v-102h-102v-412h-256v-256h-256v-254h-51v-205h-205v-307h-256v256h154v102h102v410h256v256h256v256h51v205h205z" />
<glyph unicode="0" d="M256 0v154h-102v102h-154v1280h154v102h102v154h768v-154h102v-102h154v-1280h-154v-102h-102v-154h-768zM256 1536v-1280h768v1280h-768z" />
<glyph unicode="1" horiz-adv-x="768" d="M256 0v1536h-256v256h512v-1792h-256z" />
<glyph unicode="2" d="M0 1792h1024v-154h102v-102h154v-512h-154v-102h-102v-154h-768v-512h1024v-256h-1280v768h154v102h102v154h768v512h-1024v256z" />
<glyph unicode="3" d="M0 256h1024v510h-768v156h-102v102h870v512h-1024v256h1024v-154h102v-102h154v-512h-154v-102h-102v-154h256v-512h-154v-102h-102v-154h-1024v256z" />
<glyph unicode="4" d="M256 1126v410h256v256h512v-1024h256v-258h-256v-510h-256v510h-768v514h154v102h102zM768 1534h-256v-254h-51v-205h-205v-307h512v766zM1024 512v254h-51v-203h-205v-51h256z" />
<glyph unicode="5" d="M0 256h1024v512h-1024v1024h1280v-256h-1024v-512h768v-154h102v-102h154v-512h-154v-102h-102v-154h-1024v256z" />
<glyph unicode="6" d="M256 1024h768v-154h102v-102h154v-512h-154v-102h-102v-154h-768v154h-102v102h-154v1280h154v102h102v154h870v-102h-102v-154h-768v-512zM256 768v-512h768v512h-768z" />
<glyph unicode="7" d="M922 1382h102v154h-1024v256h1280v-256h-51v-205h-205v-307h-51v-205h-205v-307h-51v-205h-205v-307h-256v256h154v102h102v410h154v102h102v410h154v102z" />
<glyph unicode="8" d="M256 0v154h-102v102h-154v512h256v154h-102v102h-154v512h154v102h102v154h768v-154h102v-102h154v-512h-154v-102h-102v-154h256v-512h-154v-102h-102v-154h-768zM256 1536v-512h768v512h-768zM256 766v-510h768v510h-768z" />
<glyph unicode="9" d="M1024 768h-768v154h-102v102h-154v512h154v102h102v154h768v-154h102v-102h154v-1280h-154v-102h-102v-154h-768v154h-102v102h870v512zM1024 1024v512h-768v-512h768z" />
<glyph unicode=":" horiz-adv-x="768" d="M256 256h256v-256h-256v256zM256 1280h256v-256h-256v256z" />
<glyph unicode=";" horiz-adv-x="768" d="M256 1280h256v-256h-256v256zM256 0v-205h-205v205h103v102h102v154h256v-256h-256z" />
<glyph unicode="&#x3c;" horiz-adv-x="1024" d="M256 766h-256v258h256v256h256v256h256v-258h-256v-256h-256v-254h256v-256h256v-256h-256v254h-256v256z" />
<glyph unicode="=" horiz-adv-x="1024" d="M0 768h768v-256h-768v256zM0 1280h768v-256h-768v256z" />
<glyph unicode="&#x3e;" horiz-adv-x="1024" d="M512 510h-256v-254h-256v256h256v256h256v254h-256v256h-256v258h256v-256h256v-256h256v-258h-256v-256z" />
<glyph unicode="?" d="M512 768h154v102h102v154h256v512h-1024v256h1024v-154h102v-102h154v-512h-154v-102h-102v-154h-256v-256h-256v256zM512 256h256v-256h-256v256z" />
<glyph unicode="@" horiz-adv-x="2304" d="M768 410h-102v102h-154v256h154v102h102v154h512v256h-512v154h-102v102h614v-154h102v-102h154v-1024h256v1280h-256v256h-1024v-256h-256v-1280h256v-256h768v-256h-768v154h-102v102h-154v154h-102v102h-154v1280h154v102h102v154h154v102h102v154h1024v-154h102v-102 h154v-154h102v-102h154v-1280h-154v-102h-102v-154h-256v154h-102v102h-666v154zM1280 768h-512v-256h512v256z" />
<glyph unicode="A" d="M1280 1536v-1536h-256v768h-768v-768h-256v1536h154v102h102v154h768v-154h102v-102h154zM256 1024h768v512h-768v-512z" />
<glyph unicode="B" d="M1024 922v-154h256v-512h-154v-102h-102v-154h-1024v1792h1024v-154h102v-102h154v-512h-154v-102h-102zM1024 1024v512h-768v-512h768zM256 256h768v510h-768v-510z" />
<glyph unicode="C" d="M256 154h-102v102h-154v1280h154v102h102v154h1024v-256h-1024v-1280h1024v-256h-1024v154z" />
<glyph unicode="D" d="M1024 0h-1024v1792h1024v-154h102v-102h154v-1280h-154v-102h-102v-154zM256 256h768v1280h-768v-1280z" />
<glyph unicode="E" d="M1024 922v-154h-768v-512h1024v-256h-1280v1792h1280v-256h-1024v-512h870v-102h-102z" />
<glyph unicode="F" d="M1024 922v-154h-768v-768h-256v1792h1280v-256h-1024v-512h870v-102h-102z" />
<glyph unicode="G" d="M1280 0h-1024v154h-102v102h-154v1280h154v102h102v154h1024v-256h-1024v-1280h768v512h-256v51h-205v205h717v-1024z" />
<glyph unicode="H" d="M1024 768h-768v-768h-256v1792h256v-768h768v768h256v-1792h-256v768z" />
<glyph unicode="I" horiz-adv-x="512" d="M0 1792h256v-1792h-256v1792z" />
<glyph unicode="J" horiz-adv-x="1280" d="M0 256h768v1536h256v-1536h-154v-102h-102v-154h-768v256z" />
<glyph unicode="K" d="M768 510h-256v256h-256v-766h-256v1792h256v-768h256v256h256v256h256v256h256v-258h-256v-256h-256v-256h-256v-254h256v-256h256v-256h256v-256h-256v254h-256v256z" />
<glyph unicode="L" horiz-adv-x="1280" d="M0 1792h256v-1536h768v-256h-1024v1792z" />
<glyph unicode="M" horiz-adv-x="2048" d="M1024 1280h256v256h256v256h256v-1792h-256v1278h-256v-256h-256v-254h-256v254h-256v256h-256v-1278h-256v1792h256v-256h256v-256h256v-256h256v256z" />
<glyph unicode="N" horiz-adv-x="1792" d="M768 922h-102v102h-154v254h-256v-1278h-256v1792h256v-256h256v-256h256v-307h205v-205h51v-256h256v1280h256v-1792h-256v256h-256v254h-256v412z" />
<glyph unicode="O" d="M154 256h-154v1280h154v102h102v154h768v-154h102v-102h154v-1280h-154v-102h-102v-154h-768v154h-102v102zM256 1536v-1280h768v1280h-768z" />
<glyph unicode="P" d="M1280 1536v-512h-154v-102h-102v-154h-768v-768h-256v1792h1024v-154h102v-102h154zM1024 1536h-768v-512h768v512z" />
<glyph unicode="Q" d="M1024 -102h-102v102h-666v154h-102v102h-154v1280h154v102h102v154h768v-154h102v-102h154v-1280h-154v-102h-102v-154h256v-256h-256v154zM256 1536v-1280h768v1280h-768z" />
<glyph unicode="R" d="M1280 1536v-512h-154v-102h-102v-205h205v-205h51v-512h-256v666h-102v102h-666v-768h-256v1792h1024v-154h102v-102h154zM1024 1536h-768v-512h768v512z" />
<glyph unicode="S" d="M0 256h1024v512h-768v154h-102v102h-154v512h154v102h102v154h1024v-256h-1024v-512h768v-154h102v-102h154v-512h-154v-102h-102v-154h-1024v256z" />
<glyph unicode="T" d="M0 1792h1280v-256h-512v-1536h-256v1536h-512v256z" />
<glyph unicode="U" d="M1280 1792v-1536h-154v-102h-102v-154h-768v154h-102v102h-154v1536h256v-1536h768v1536h256z" />
<glyph unicode="V" d="M1024 768h-51v-205h-203v-563h-258v563h-205v205h-51v410h-102v102h-154v512h256v-563h205v-205h51v-410h102v-102h154v512h51v205h205v563h256v-512h-154v-102h-102v-410z" />
<glyph unicode="W" horiz-adv-x="2048" d="M768 154v-154h-512v154h-102v102h-154v1536h256v-1536h512v1536h256v-1536h512v1536h256v-1536h-154v-102h-102v-154h-512v254h-154v-100h-102z" />
<glyph unicode="X" d="M1280 1536h-51v-205h-205v-309h-256v-254h256v-307h205v-205h51v-256h-256v410h-102v102h-154v256h-256v254h-256v309h-205v205h-51v256h256v-410h102v-102h154v-256h256v256h154v102h102v410h256v-256zM512 768v-256h-154v-102h-102v-410h-256v256h51v205h205v307h256z " />
<glyph unicode="Y" d="M1126 1536v-102h-102v-412h-256v-1022h-256v1022h-256v412h-102v102h-154v256h256v-307h205v-205h51v-256h256v256h51v205h205v307h256v-256h-154z" />
<glyph unicode="Z" d="M0 512h256v256h256v256h256v256h256v256h-1024v256h1280v-514h-256v-256h-256v-256h-256v-256h-256v-254h1024v-256h-1280v512z" />
<glyph unicode="[" horiz-adv-x="768" d="M0 2048h512v-256h-256v-1792h256v-256h-512v2304z" />
<glyph unicode="\" d="M461 1485v-205h51v-256h256v-256h256v-410h102v-102h154v-256h-256v307h-205v205h-51v254h-256v256h-256v412h-102v102h-154v256h256v-307h205z" />
<glyph unicode="]" horiz-adv-x="768" d="M0 0h256v1792h-256v256h512v-2304h-512v256z" />
<glyph unicode="^" horiz-adv-x="1024" d="M512 1638h102v-102h103v-205h-205v205h-256v-205h-205v205h103v102h102v154h256v-154z" />
<glyph unicode="_" horiz-adv-x="1024" d="M0 256h768v-256h-768v256z" />
<glyph unicode="`" horiz-adv-x="768" d="M0 2304v256h256v-154h102v-102h103v-205h-205v205h-256z" />
<glyph unicode="a" d="M256 154h-102v102h-154v256h154v102h102v154h768v256h-768v154h-102v102h870v-154h102v-102h154v-1024h-1024v154zM1024 256v256h-768v-256h768z" />
<glyph unicode="b" d="M205 1741v-205h51v-512h51v205h205v51h512v-154h102v-102h154v-768h-154v-102h-102v-154h-512v51h-205v205h-51v-256h-256v1741h205zM1024 1024h-666v-102h-102v-564h102v-102h666v768z" />
<glyph unicode="c" d="M256 154h-102v102h-154v768h154v102h102v154h1024v-256h-1024v-768h1024v-256h-1024v154z" />
<glyph unicode="d" d="M1229 1741v-205h51v-1536h-256v256h-51v-205h-205v-51h-512v154h-102v102h-154v768h154v102h102v154h512v-51h205v-205h51v717h205zM256 256h666v102h102v564h-102v102h-666v-768z" />
<glyph unicode="e" d="M1126 154h-102v-154h-768v154h-102v102h-154v768h154v102h102v154h768v-154h102v-102h154v-512h-1024v-256h870v-102zM256 768h768v256h-768v-256z" />
<glyph unicode="f" horiz-adv-x="1280" d="M0 1280h256v256h154v102h102v154h512v-256h-512v-256h512v-258h-512v-1022h-256v1022h-256v258zM512 1024v254h-51v-203h-205v-51h256z" />
<glyph unicode="g" d="M1024 -256v512h-51v-205h-205v-51h-512v154h-102v102h-154v768h154v102h102v154h512v-51h205v-205h51v256h256v-1536h-154v-102h-102v-154h-768v154h-102v102h870zM256 256h666v102h102v564h-102v102h-666v-768z" />
<glyph unicode="h" d="M205 1741v-205h51v-512h51v205h205v51h512v-154h102v-102h154v-1024h-256v1024h-666v-102h-102v-922h-256v1741h205z" />
<glyph unicode="i" horiz-adv-x="512" d="M0 1280h256v-1280h-256v1280zM0 1792h256v-256h-256v256z" />
<glyph unicode="j" horiz-adv-x="512" d="M0 -358v-154h-256v256h256v1536h256v-1536h-154v-102h-102zM0 1792h256v-256h-256v256z" />
<glyph unicode="k" d="M1024 0v154h-102v102h-410v254h-256v-510h-256v1741h205v-205h51v-768h256v256h410v102h102v154h256v-256h-307v-205h-205v-53h-256v-254h256v-51h205v-205h307v-256h-256z" />
<glyph unicode="l" horiz-adv-x="512" d="M205 1741v-205h51v-1536h-256v1741h205z" />
<glyph unicode="m" horiz-adv-x="2048" d="M358 1024v-102h-102v-922h-256v1280h256v-256h51v205h205v51h256v-154h102v-102h205v205h205v51h256v-154h102v-102h154v-1024h-256v1024h-410v-102h-102v-922h-256v1024h-410z" />
<glyph unicode="n" d="M358 1024v-102h-102v-922h-256v1280h256v-256h51v205h205v51h512v-154h102v-102h154v-1024h-256v1024h-666z" />
<glyph unicode="o" d="M256 0v154h-102v102h-154v768h154v102h102v154h768v-154h102v-102h154v-768h-154v-102h-102v-154h-768zM256 1024v-768h768v768h-768z" />
<glyph unicode="p" d="M256 1280v-256h51v205h205v51h512v-154h102v-102h154v-768h-154v-102h-102v-154h-512v51h-205v205h-51v-512h-51v-205h-205v1741h256zM1024 1024h-666v-102h-102v-564h102v-102h666v768z" />
<glyph unicode="q" d="M973 256v-205h-205v-51h-512v154h-102v102h-154v768h154v102h102v154h512v-51h205v-205h51v256h256v-1536h-51v-205h-205v717h-51zM256 256h666v102h102v564h-102v102h-666v-768z" />
<glyph unicode="r" horiz-adv-x="1280" d="M358 1024v-102h-102v-922h-256v1280h256v-256h51v205h205v51h512v-256h-666z" />
<glyph unicode="s" d="M0 256h1024v256h-768v154h-102v102h-154v256h154v102h102v154h1024v-256h-1024v-256h768v-154h102v-102h154v-256h-154v-102h-102v-154h-1024v256z" />
<glyph unicode="t" horiz-adv-x="1280" d="M0 1280h256v358h102v-102h154v-256h512v-258h-512v-766h512v-256h-512v51h-205v205h-51v766h-256v258zM512 1024v254h-51v-203h-205v-51h256z" />
<glyph unicode="u" d="M768 51v-51h-512v154h-102v102h-154v1024h256v-1024h666v102h102v922h256v-1280h-256v256h-51v-205h-205z" />
<glyph unicode="v" d="M1024 512h-51v-205h-203v-307h-258v307h-205v205h-51v410h-102v102h-154v256h256v-307h205v-205h51v-410h102v-102h154v512h51v205h205v307h256v-256h-154v-102h-102v-410z" />
<glyph unicode="w" horiz-adv-x="2048" d="M768 154v-154h-512v154h-102v102h-154v1024h256v-1024h512v1024h256v-1024h512v1024h256v-1024h-154v-102h-102v-154h-512v254h-154v-100h-102z" />
<glyph unicode="x" d="M768 1024h256v256h256v-258h-256v-256h-256v-254h256v-256h256v-256h-256v254h-256v258h-256v254h-256v256h-256v258h256v-256h256v-256h256v256zM0 256h256v256h256v-258h-256v-254h-256v256z" />
<glyph unicode="y" d="M307 307v205h-51v410h-102v102h-154v256h256v-307h205v-205h51v-410h102v-102h154v512h51v205h205v307h256v-256h-154v-102h-102v-410h-51v-205h-203v-307h-53v-205h-205v-307h-256v256h154v102h102v461h-205z" />
<glyph unicode="z" d="M0 256h256v256h256v256h256v256h-768v256h1280v-256h-256v-258h-256v-256h-256v-254h768v-256h-1280v256z" />
<glyph unicode="{" horiz-adv-x="1024" d="M0 1024h256v768h154v102h102v154h256v-256h-256v-770h-256v-254h256v-768h256v-256h-256v154h-102v102h-154v766h-256v258z" />
<glyph unicode="|" horiz-adv-x="512" d="M0 2048h256v-2304h-256v2304z" />
<glyph unicode="}" horiz-adv-x="1024" d="M768 766h-256v-766h-154v-102h-102v-154h-256v256h256v768h256v254h-256v770h-256v256h256v-154h102v-102h154v-768h256v-258z" />
<glyph unicode="~" horiz-adv-x="1280" d="M768 1280h-256v254h-256v-203h-205v205h103v102h102v154h256v-256h256v205h205v-205h-103v-102h-102v-154z" />
<glyph unicode="&#xa1;" horiz-adv-x="512" d="M0 1792h256v-256h-256v256zM0 1280h256v-1280h-256v1280z" />
<glyph unicode="&#xa2;" d="M768 0h-256v254h-256v156h-102v102h-154v768h154v102h102v154h256v256h256v-256h512v-258h-512v-766h512v-258h-512v-254zM256 512h256v766h-256v-766zM768 256v254h-51v-203h-205v-51h256zM768 1280v254h-51v-203h-205v-51h256z" />
<glyph unicode="&#xa3;" d="M512 256h768v-256h-1280v256h256v510h-256v258h256v512h154v102h102v154h768v-256h-768v-512h614v-102h-102v-156h-512v-510zM512 768v254h-51v-203h-205v-51h256z" />
<glyph unicode="&#xa4;" d="M0 512h512v51h-205v205h-51v256h51v205h205v49h-512v258h256v-256h768v256h256v-258h-512v-49h205v-205h51v-256h-51v-205h-205v-51h512v-256h-256v254h-768v-254h-256v256zM512 1024v-256h256v256h-256z" />
<glyph unicode="&#xa5;" d="M0 514h512v252h-512v258h512v254h-256v256h-256v258h256v-256h256v-256h256v256h256v256h256v-258h-256v-256h-256v-254h512v-258h-512v-252h512v-258h-512v-256h-256v256h-512v258zM768 258v254h-51v-203h-205v-51h256zM768 768v254h-51v-203h-205v-51h256z" />
<glyph unicode="&#xa6;" horiz-adv-x="512" d="M0 768h256v-1024h-256v1024zM256 1024h-256v1024h256v-1024z" />
<glyph unicode="&#xa7;" d="M1024 1126h102v-102h154v-256h-51v-205h-205v-205h102v-102h154v-256h-154v-102h-102v-154h-768v154h-102v102h-154v256h256v-256h768v256h-256v154h-102v102h-410v154h-102v102h-154v256h51v205h205v205h-102v102h-154v256h154v102h102v154h768v-154h102v-102h154v-256 h-256v256h-768v-256h256v-154h102v-102h410v-154zM922 614h102v410h-256v51h-205v205h-205v-102h-102v-410h256v-51h205v-205h205v102z" />
<glyph unicode="&#xa8;" horiz-adv-x="1024" d="M0 2304h256v-256h-256v256zM512 2304h256v-256h-256v256z" />
<glyph unicode="&#xa9;" horiz-adv-x="2304" d="M154 1536v102h102v154h154v102h102v154h1024v-154h102v-102h154v-154h102v-102h154v-1280h-154v-102h-102v-154h-154v-102h-102v-154h-1024v154h-102v102h-154v154h-102v102h-154v1280h154zM1382 256h410v1278h-410v-100h-102v-154h-512v-768h512v-154h102v-102zM768 410 h-102v102h-154v768h154v102h102v154h768v256h-1024v-256h-256v-1280h256v-256h1024v254h-768v156z" />
<glyph unicode="&#xaa;" horiz-adv-x="1024" d="M51 1280h-51v256h154v102h102v154h512v-768h-512v51h-205v205zM256 1280h256v256h-256v-256z" />
<glyph unicode="&#xab;" horiz-adv-x="1792" d="M256 766h-256v258h256v256h256v256h256v-258h-256v-256h-256v-254h256v-256h256v-256h-256v254h-256v256zM1024 766h-256v258h256v256h256v256h256v-258h-256v-256h-256v-254h256v-256h256v-256h-256v254h-256v256z" />
<glyph unicode="&#xac;" horiz-adv-x="1024" d="M0 1280h768v-768h-256v512h-512v256z" />
<glyph unicode="&#xad;" horiz-adv-x="1024" d="M0 768h768v-256h-768v256z" />
<glyph unicode="&#xae;" horiz-adv-x="2304" d="M1536 -256h-1024v154h-102v102h-154v154h-102v102h-154v1280h154v102h102v154h154v102h102v154h1024v-154h102v-102h154v-154h102v-102h154v-1280h-154v-102h-102v-154h-154v-102h-102v-154zM1536 256h256v1280h-256v256h-1024v-256h768v-154h102v-102h154v-256h-154 v-102h-102v-205h205v-205h51v-256zM1280 666h-102v102h-410v-514h-256v-254h1024v254h-256v412zM512 1534h-256v-1278h256v1278zM1280 1280h-512v-256h512v256z" />
<glyph unicode="&#xaf;" horiz-adv-x="1024" d="M0 2304h768v-256h-768v256z" />
<glyph unicode="&#xb0;" horiz-adv-x="1024" d="M512 1178v-154h-256v154h-102v102h-154v256h154v102h102v154h256v-154h102v-102h154v-256h-154v-102h-102zM256 1280h256v256h-256v-256z" />
<glyph unicode="&#xb1;" d="M0 512h1280v-256h-1280v256zM0 1280h512v256h256v-256h512v-258h-512v-254h-256v254h-512v258zM768 1024v254h-51v-203h-205v-51h256z" />
<glyph unicode="&#xb2;" horiz-adv-x="1024" d="M0 1792h154v102h102v154h256v256h-512v256h512v-154h102v-102h154v-256h-154v-102h-102v-154h-256v-256h512v-256h-768v512z" />
<glyph unicode="&#xb3;" horiz-adv-x="1024" d="M256 1946h-102v102h358v256h-512v256h512v-154h102v-102h154v-256h-154v-102h-102v-154h256v-256h-154v-102h-102v-154h-512v256h512v254h-256v156z" />
<glyph unicode="&#xb4;" horiz-adv-x="768" d="M256 2304v-205h-205v205h103v102h102v154h256v-256h-256z" />
<glyph unicode="&#xb5;" d="M307 256h-51v-512h-256v1536h256v-922h102v-102h564v102h102v922h256v-1280h-256v256h-51v-205h-205v-51h-256v51h-205v205z" />
<glyph unicode="&#xb6;" d="M154 1894h102v154h1024v-2304h-256v2048h-256v-2048h-256v1024h-256v154h-102v102h-154v768h154v102z" />
<glyph unicode="&#xb7;" horiz-adv-x="512" d="M0 1024h256v-256h-256v256z" />
<glyph unicode="&#xb8;" horiz-adv-x="768" d="M256 -256v-205h-205v205h103v102h102v154h256v-256h-256z" />
<glyph unicode="&#xb9;" horiz-adv-x="768" d="M0 2560h512v-1280h-256v1024h-256v256z" />
<glyph unicode="&#xba;" horiz-adv-x="1024" d="M512 1178v-154h-256v154h-102v102h-154v256h154v102h102v154h256v-154h102v-102h154v-256h-154v-102h-102zM256 1280h256v256h-256v-256z" />
<glyph unicode="&#xbb;" horiz-adv-x="1792" d="M1280 510h-256v-254h-256v256h256v256h256v254h-256v256h-256v258h256v-256h256v-256h256v-258h-256v-256zM512 510h-256v-254h-256v256h256v256h256v254h-256v256h-256v258h256v-256h256v-256h256v-258h-256v-256z" />
<glyph unicode="&#xbc;" horiz-adv-x="2560" d="M2048 0v256h-512v512h256v-256h256v256h-256v256h256v256h256v-1280h-256zM0 1792h512v-1280h-256v1024h-256v256zM1536 1485v307h256v-256h-154v-102h-102v-412h-256v-256h-256v-254h-51v-205h-205v-307h-256v256h154v102h102v410h256v256h256v256h51v205h205z" />
<glyph unicode="&#xbd;" horiz-adv-x="2816" d="M0 1792h512v-1280h-256v1024h-256v256zM1792 512h154v102h102v154h256v256h-512v256h512v-154h102v-102h154v-256h-154v-102h-102v-154h-256v-256h512v-256h-768v512zM1331 1485v-205h-51v-256h-256v-256h-256v-410h-102v-102h-154v-256h256v307h205v205h51v254h256v256 h256v412h102v102h154v256h-256v-307h-205z" />
<glyph unicode="&#xbe;" horiz-adv-x="2816" d="M2304 0v256h-512v512h256v-256h256v256h-256v256h256v256h256v-1280h-256zM256 1178h-102v102h358v256h-512v256h512v-154h102v-102h154v-256h-154v-102h-102v-154h256v-256h-154v-102h-102v-154h-512v256h512v254h-256v156zM1792 1485v307h256v-256h-154v-102h-102v-412 h-256v-256h-256v-254h-51v-205h-205v-307h-256v256h154v102h102v410h256v256h256v256h51v205h205z" />
<glyph unicode="&#xbf;" d="M768 1024h-154v-102h-102v-154h-256v-512h1024v-256h-1024v154h-102v102h-154v512h154v102h102v154h256v256h256v-256zM768 1536h-256v256h256v-256z" />
<glyph unicode="&#xc0;" d="M1280 1536v-1536h-256v768h-768v-768h-256v1536h154v102h102v154h768v-154h102v-102h154zM256 1024h768v512h-768v-512zM256 2304v256h256v-154h102v-102h103v-205h-205v205h-256z" />
<glyph unicode="&#xc1;" d="M1280 1536v-1536h-256v768h-768v-768h-256v1536h154v102h102v154h768v-154h102v-102h154zM256 1024h768v512h-768v-512zM768 2304v-205h-205v205h103v102h102v154h256v-256h-256z" />
<glyph unicode="&#xc2;" d="M1280 1536v-1536h-256v768h-768v-768h-256v1536h154v102h102v154h768v-154h102v-102h154zM256 1024h768v512h-768v-512zM768 2406h102v-102h103v-205h-205v205h-256v-205h-205v205h103v102h102v154h256v-154z" />
<glyph unicode="&#xc3;" d="M1280 1536v-1536h-256v768h-768v-768h-256v1536h154v102h102v154h768v-154h102v-102h154zM256 1024h768v512h-768v-512zM563 2304h-307v-205h-205v205h103v102h102v154h256v-51h205v-205h307v205h205v-205h-103v-102h-102v-154h-256v51h-205v205z" />
<glyph unicode="&#xc4;" d="M1280 1536v-1536h-256v768h-768v-768h-256v1536h154v102h102v154h768v-154h102v-102h154zM256 1024h768v512h-768v-512zM256 2304h256v-256h-256v256zM768 2304h256v-256h-256v256z" />
<glyph unicode="&#xc5;" d="M1280 1536v-1536h-256v768h-768v-768h-256v1536h154v102h102v154h768v-154h102v-102h154zM256 1024h768v512h-768v-512zM768 2202v-154h-256v154h-102v102h-154v256h154v102h102v154h256v-154h102v-102h154v-256h-154v-102h-102zM512 2304h256v256h-256v-256z" />
<glyph unicode="&#xc6;" horiz-adv-x="2560" d="M2048 922v-156h-768v-510h1024v-256h-1280v766h-768v-766h-256v1536h154v102h102v154h2048v-256h-1024v-512h870v-102h-102zM1024 1536h-768v-512h768v512zM1280 768v254h-51v-203h-205v-51h256z" />
<glyph unicode="&#xc7;" d="M768 0v-256h-256v-205h-205v205h103v102h102v154h-256v154h-102v102h-154v1280h154v102h102v154h1024v-256h-1024v-1280h1024v-256h-512z" />
<glyph unicode="&#xc8;" d="M1024 922v-154h-768v-512h1024v-256h-1280v1792h1280v-256h-1024v-512h870v-102h-102zM256 2304v256h256v-154h102v-102h103v-205h-205v205h-256z" />
<glyph unicode="&#xc9;" d="M1024 922v-154h-768v-512h1024v-256h-1280v1792h1280v-256h-1024v-512h870v-102h-102zM768 2304v-205h-205v205h103v102h102v154h256v-256h-256z" />
<glyph unicode="&#xca;" d="M1024 922v-154h-768v-512h1024v-256h-1280v1792h1280v-256h-1024v-512h870v-102h-102zM768 2406h102v-102h103v-205h-205v205h-256v-205h-205v205h103v102h102v154h256v-154z" />
<glyph unicode="&#xcb;" d="M1024 922v-154h-768v-512h1024v-256h-1280v1792h1280v-256h-1024v-512h870v-102h-102zM256 2304h256v-256h-256v256zM768 2304h256v-256h-256v256z" />
<glyph unicode="&#xcc;" horiz-adv-x="512" d="M0 1792h256v-1792h-256v1792zM-256 2304v256h256v-154h102v-102h103v-205h-205v205h-256z" />
<glyph unicode="&#xcd;" horiz-adv-x="512" d="M0 1792h256v-1792h-256v1792zM256 2304v-205h-205v205h103v102h102v154h256v-256h-256z" />
<glyph unicode="&#xce;" horiz-adv-x="512" d="M0 1792h256v-1792h-256v1792zM256 2406h102v-102h103v-205h-205v205h-256v-205h-205v205h103v102h102v154h256v-154z" />
<glyph unicode="&#xcf;" horiz-adv-x="512" d="M0 1792h256v-1792h-256v1792zM-256 2304h256v-256h-256v256zM256 2304h256v-256h-256v256z" />
<glyph unicode="&#xd0;" horiz-adv-x="1792" d="M0 1024h256v768h1024v-154h102v-102h154v-1280h-154v-102h-102v-154h-1024v766h-256v258zM973 1024v-205h-205v-53h-256v-510h768v1280h-768v-512h461zM512 768v254h-51v-203h-205v-51h256z" />
<glyph unicode="&#xd1;" horiz-adv-x="1792" d="M768 510h256v-254h256v-256h256v1792h-256v-1280h-256v256h-51v205h-205v307h-256v256h-256v256h-256v-1792h256v1278h256v-254h154v-102h102v-412zM1024 2048h-256v254h-256v-203h-205v205h103v102h102v154h256v-256h256v205h205v-205h-103v-102h-102v-154z" />
<glyph unicode="&#xd2;" d="M256 0v154h-102v102h-154v1280h154v102h102v154h768v-154h102v-102h154v-1280h-154v-102h-102v-154h-768zM256 1536v-1280h768v1280h-768zM256 2304v256h256v-154h102v-102h103v-205h-205v205h-256z" />
<glyph unicode="&#xd3;" d="M256 0v154h-102v102h-154v1280h154v102h102v154h768v-154h102v-102h154v-1280h-154v-102h-102v-154h-768zM256 1536v-1280h768v1280h-768zM768 2304v-205h-205v205h103v102h102v154h256v-256h-256z" />
<glyph unicode="&#xd4;" d="M256 0v154h-102v102h-154v1280h154v102h102v154h768v-154h102v-102h154v-1280h-154v-102h-102v-154h-768zM256 1536v-1280h768v1280h-768zM768 2406h102v-102h103v-205h-205v205h-256v-205h-205v205h103v102h102v154h256v-154z" />
<glyph unicode="&#xd5;" d="M256 0v154h-102v102h-154v1280h154v102h102v154h768v-154h102v-102h154v-1280h-154v-102h-102v-154h-768zM256 1536v-1280h768v1280h-768zM563 2304h-307v-205h-205v205h103v102h102v154h256v-51h205v-205h307v205h205v-205h-103v-102h-102v-154h-256v51h-205v205z" />
<glyph unicode="&#xd6;" d="M256 2304h256v-256h-256v256zM768 2304h256v-256h-256v256zM256 0v154h-102v102h-154v1280h154v102h102v154h768v-154h102v-102h154v-1280h-154v-102h-102v-154h-768zM256 1536v-1280h768v1280h-768z" />
<glyph unicode="&#xd7;" d="M768 1280h256v256h256v-258h-256v-256h-256v-254h256v-256h256v-256h-256v254h-256v258h-256v254h-256v256h-256v258h256v-256h256v-256h256v256zM0 512h256v256h256v-258h-256v-254h-256v256z" />
<glyph unicode="&#xd8;" d="M254 358v308h-100v102h-154v768h154v102h102v154h512v-154h102v-102h154v256h256v-256h-154v-102h-100v-308h100v-102h154v-768h-154v-102h-102v-154h-512v154h-102v102h-154v-256h-256v256h154v102h100zM1024 1280h-51v-205h-205v-307h-154v-102h-102v-410h512v1024z M256 512h51v205h205v307h154v102h102v410h-512v-1024z" />
<glyph unicode="&#xd9;" d="M1024 256v1536h256v-1536h-154v-102h-102v-154h-768v154h-102v102h-154v1536h256v-1536h768zM256 2304v256h256v-154h102v-102h103v-205h-205v205h-256z" />
<glyph unicode="&#xda;" d="M1024 256v1536h256v-1536h-154v-102h-102v-154h-768v154h-102v102h-154v1536h256v-1536h768zM768 2304v-205h-205v205h103v102h102v154h256v-256h-256z" />
<glyph unicode="&#xdb;" d="M1024 256v1536h256v-1536h-154v-102h-102v-154h-768v154h-102v102h-154v1536h256v-1536h768zM768 2406h102v-102h103v-205h-205v205h-256v-205h-205v205h103v102h102v154h256v-154z" />
<glyph unicode="&#xdc;" d="M256 2304h256v-256h-256v256zM768 2304h256v-256h-256v256zM1024 256v1536h256v-1536h-154v-102h-102v-154h-768v154h-102v102h-154v1536h256v-1536h768z" />
<glyph unicode="&#xdd;" d="M768 2304v-205h-205v205h103v102h102v154h256v-256h-256zM1280 1536v256h-256v-307h-205v-205h-51v-256h-256v256h-51v205h-205v307h-256v-256h154v-102h102v-412h256v-1022h256v1022h256v412h102v102h154z" />
<glyph unicode="&#xde;" d="M0 -256v2304h256v-512h51v205h205v51h512v-154h102v-102h154v-1280h-154v-102h-102v-154h-512v51h-205v205h-51v-512h-256zM1024 1536h-666v-102h-102v-1076h102v-102h666v1280z" />
<glyph unicode="&#xdf;" d="M0 -256v1792h51v205h205v51h768v-154h102v-102h154v-512h-154v-102h-102v-154h256v-512h-154v-102h-102v-154h-512v154h-102v102h614v510h-512v156h-102v102h614v512h-768v-1792h-256z" />
<glyph unicode="&#xe0;" d="M256 154h-102v102h-154v256h154v102h102v154h768v256h-768v154h-102v102h870v-154h102v-102h154v-1024h-1024v154zM1024 512h-768v-256h768v256zM256 1792v256h256v-154h102v-102h103v-205h-205v205h-256z" />
<glyph unicode="&#xe1;" d="M768 1792v-205h-205v205h103v102h102v154h256v-256h-256zM256 0h1024v1024h-154v102h-102v154h-870v-102h102v-154h768v-256h-768v-154h-102v-102h-154v-256h154v-102h102v-154zM1024 256h-768v256h768v-256z" />
<glyph unicode="&#xe2;" d="M768 1894h102v-102h103v-205h-205v205h-256v-205h-205v205h103v102h102v154h256v-154zM256 0h1024v1024h-154v102h-102v154h-870v-102h102v-154h768v-256h-768v-154h-102v-102h-154v-256h154v-102h102v-154zM1024 256h-768v256h768v-256z" />
<glyph unicode="&#xe3;" d="M256 0h1024v1024h-154v102h-102v154h-870v-102h102v-154h768v-256h-768v-154h-102v-102h-154v-256h154v-102h102v-154zM1024 256h-768v256h768v-256zM563 1792h-307v-205h-205v205h103v102h102v154h256v-51h205v-205h307v205h205v-205h-103v-102h-102v-154h-256v51h-205 v205z" />
<glyph unicode="&#xe4;" d="M256 1792h256v-256h-256v256zM768 1792h256v-256h-256v256zM256 0h1024v1024h-154v102h-102v154h-870v-102h102v-154h768v-256h-768v-154h-102v-102h-154v-256h154v-102h102v-154zM1024 256h-768v256h768v-256z" />
<glyph unicode="&#xe5;" d="M768 1690v-154h-256v154h-102v102h-154v256h154v102h102v154h256v-154h102v-102h154v-256h-154v-102h-102zM512 1792h256v256h-256v-256zM256 0h1024v1024h-154v102h-102v154h-870v-102h102v-154h768v-256h-768v-154h-102v-102h-154v-256h154v-102h102v-154zM1024 256 h-768v256h768v-256z" />
<glyph unicode="&#xe6;" horiz-adv-x="2560" d="M256 1024v154h-102v102h870v-154h102v-102h154v256h768v-154h102v-102h154v-514h-1024v-254h870v-102h-102v-154h-768v254h-154v-100h-102v-154h-768v154h-102v102h-154v256h154v102h102v154h768v256h-768zM2048 1022h-768v-254h768v254zM1024 510h-768v-254h768v254z M1280 766h-51v-203h-205v-51h256v254z" />
<glyph unicode="&#xe7;" d="M256 256h1024v-256h-512v-256h-256v-205h-205v205h103v102h102v154h-256v154h-102v102h-154v768h154v102h102v154h1024v-256h-1024v-768z" />
<glyph unicode="&#xe8;" d="M256 1792v256h256v-154h102v-102h103v-205h-205v205h-256zM154 256v-102h102v-154h768v154h102v102h-870v256h1024v512h-154v102h-102v154h-768v-154h-102v-102h-154v-768h154zM256 1024h768v-256h-768v256z" />
<glyph unicode="&#xe9;" d="M512 1792v-205h-205v205h103v102h102v154h256v-256h-256zM154 256v-102h102v-154h768v154h102v102h-870v256h1024v512h-154v102h-102v154h-768v-154h-102v-102h-154v-768h154zM256 1024h768v-256h-768v256z" />
<glyph unicode="&#xea;" d="M768 1894h102v-102h103v-205h-205v205h-256v-205h-205v205h103v102h102v154h256v-154zM154 256v-102h102v-154h768v154h102v102h-870v256h1024v512h-154v102h-102v154h-768v-154h-102v-102h-154v-768h154zM256 1024h768v-256h-768v256z" />
<glyph unicode="&#xeb;" d="M256 1792h256v-256h-256v256zM768 1792h256v-256h-256v256zM154 256v-102h102v-154h768v154h102v102h-870v256h1024v512h-154v102h-102v154h-768v-154h-102v-102h-154v-768h154zM256 1024h768v-256h-768v256z" />
<glyph unicode="&#xec;" horiz-adv-x="512" d="M0 1280h256v-1280h-256v1280zM-256 1792v256h256v-154h102v-102h103v-205h-205v205h-256z" />
<glyph unicode="&#xed;" horiz-adv-x="512" d="M0 1280h256v-1280h-256v1280zM256 1792v-205h-205v205h103v102h102v154h256v-256h-256z" />
<glyph unicode="&#xee;" horiz-adv-x="512" d="M0 1280h256v-1280h-256v1280zM256 1894h102v-102h103v-205h-205v205h-256v-205h-205v205h103v102h102v154h256v-154z" />
<glyph unicode="&#xef;" horiz-adv-x="512" d="M0 1280h256v-1280h-256v1280zM-256 1792h256v-256h-256v256zM256 1792h256v-256h-256v256z" />
<glyph unicode="&#xf0;" d="M512 1536h512v205h205v-205h51v-1536h-256v256h-51v-205h-205v-51h-512v154h-102v102h-154v512h154v102h102v154h512v-51h205v-205h51v512h-512v256zM922 256v102h102v308h-102v102h-666v-512h666z" />
<glyph unicode="&#xf1;" d="M1024 1024v-1024h256v1024h-154v102h-102v154h-512v-51h-205v-205h-51v256h-256v-1280h256v922h102v102h666zM563 1792h-307v-205h-205v205h103v102h102v154h256v-51h205v-205h307v205h205v-205h-103v-102h-102v-154h-256v51h-205v205z" />
<glyph unicode="&#xf2;" d="M256 0v154h-102v102h-154v768h154v102h102v154h768v-154h102v-102h154v-768h-154v-102h-102v-154h-768zM256 1024v-768h768v768h-768zM256 1792v256h256v-154h102v-102h103v-205h-205v205h-256z" />
<glyph unicode="&#xf3;" d="M256 0v154h-102v102h-154v768h154v102h102v154h768v-154h102v-102h154v-768h-154v-102h-102v-154h-768zM256 1024v-768h768v768h-768zM768 1792v-205h-205v205h103v102h102v154h256v-256h-256z" />
<glyph unicode="&#xf4;" d="M256 0v154h-102v102h-154v768h154v102h102v154h768v-154h102v-102h154v-768h-154v-102h-102v-154h-768zM256 1024v-768h768v768h-768zM768 1894h102v-102h103v-205h-205v205h-256v-205h-205v205h103v102h102v154h256v-154z" />
<glyph unicode="&#xf5;" d="M256 0v154h-102v102h-154v768h154v102h102v154h768v-154h102v-102h154v-768h-154v-102h-102v-154h-768zM256 1024v-768h768v768h-768zM563 1792h-307v-205h-205v205h103v102h102v154h256v-51h205v-205h307v205h205v-205h-103v-102h-102v-154h-256v51h-205v205z" />
<glyph unicode="&#xf6;" d="M256 1792h256v-256h-256v256zM768 1792h256v-256h-256v256zM256 0v154h-102v102h-154v768h154v102h102v154h768v-154h102v-102h154v-768h-154v-102h-102v-154h-768zM256 1024v-768h768v768h-768z" />
<glyph unicode="&#xf7;" d="M0 1024h1280v-256h-1280v256zM768 1280h-256v256h256v-256zM512 256v256h256v-256h-256z" />
<glyph unicode="&#xf8;" d="M154 512h-154v512h154v102h102v154h512v-154h102v-102h154v256h256v-258h-256v-152h102v-102h154v-512h-154v-102h-102v-154h-512v154h-102v100h-154v-254h-256v256h256v154h-102v102zM256 512h256v256h256v256h-512v-512zM768 766v-256h-256v-254h512v510h-256z" />
<glyph unicode="&#xf9;" d="M256 1792v256h256v-154h102v-102h103v-205h-205v205h-256zM973 51v205h51v-256h256v1280h-256v-922h-102v-102h-666v1024h-256v-1024h154v-102h102v-154h512v51h205z" />
<glyph unicode="&#xfa;" d="M768 1792v-205h-205v205h103v102h102v154h256v-256h-256zM973 51v205h51v-256h256v1280h-256v-922h-102v-102h-666v1024h-256v-1024h154v-102h102v-154h512v51h205z" />
<glyph unicode="&#xfb;" d="M768 1894h102v-102h103v-205h-205v205h-256v-205h-205v205h103v102h102v154h256v-154zM973 51v205h51v-256h256v1280h-256v-922h-102v-102h-666v1024h-256v-1024h154v-102h102v-154h512v51h205z" />
<glyph unicode="&#xfc;" d="M256 1792h256v-256h-256v256zM768 1792h256v-256h-256v256zM973 51v205h51v-256h256v1280h-256v-922h-102v-102h-666v1024h-256v-1024h154v-102h102v-154h512v51h205z" />
<glyph unicode="&#xfd;" d="M768 1792v-205h-205v205h103v102h102v154h256v-256h-256zM512 307v-461h-102v-102h-154v-256h256v307h205v205h53v307h203v205h51v410h102v102h154v256h-256v-307h-205v-205h-51v-512h-154v102h-102v410h-51v205h-205v307h-256v-256h154v-102h102v-410h51v-205h205z" />
<glyph unicode="&#xfe;" d="M0 -256v1792h256v-512h51v205h205v51h512v-154h102v-102h154v-768h-154v-102h-102v-154h-512v51h-205v205h-51v-512h-256zM1024 1024h-666v-102h-102v-564h102v-102h666v768z" />
<glyph unicode="&#xff;" d="M768 1792h256v-256h-256v256zM256 1792h256v-256h-256v256zM512 307v-461h-102v-102h-154v-256h256v307h205v205h53v307h203v205h51v410h102v102h154v256h-256v-307h-205v-205h-51v-512h-154v102h-102v410h-51v205h-205v307h-256v-256h154v-102h102v-410h51v-205h205z " />
<glyph unicode="&#x152;" horiz-adv-x="2560" d="M2048 922v-154h-768v-512h1024v-256h-2048v154h-102v102h-154v1280h154v102h102v154h2048v-256h-1024v-512h870v-102h-102zM256 1536v-1280h768v1280h-768z" />
<glyph unicode="&#x153;" horiz-adv-x="2560" d="M1126 1024h154v256h768v-154h102v-102h154v-512h-1024v-256h870v-102h-102v-154h-768v254h-154v-100h-102v-154h-768v154h-102v102h-154v768h154v102h102v154h768v-154h102v-102zM256 1024v-768h768v768h-768zM2048 768v254h-768v-254h768z" />
<glyph unicode="&#x178;" d="M768 2304h256v-256h-256v256zM256 2304h256v-256h-256v256zM1280 1536v256h-256v-307h-205v-205h-51v-256h-256v256h-51v205h-205v307h-256v-256h154v-102h102v-412h256v-1022h256v1022h256v412h102v102h154z" />
<glyph unicode="&#x2c6;" horiz-adv-x="1024" d="M512 2406h102v-102h103v-205h-205v205h-256v-205h-205v205h103v102h102v154h256v-154z" />
<glyph unicode="&#x2dc;" horiz-adv-x="1280" d="M768 2048h-256v254h-256v-203h-205v205h103v102h102v154h256v-256h256v205h205v-205h-103v-102h-102v-154z" />
<glyph unicode="&#x2000;" horiz-adv-x="1406" />
<glyph unicode="&#x2001;" horiz-adv-x="2816" />
<glyph unicode="&#x2002;" horiz-adv-x="1406" />
<glyph unicode="&#x2003;" horiz-adv-x="2816" />
<glyph unicode="&#x2004;" horiz-adv-x="937" />
<glyph unicode="&#x2005;" horiz-adv-x="702" />
<glyph unicode="&#x2006;" horiz-adv-x="468" />
<glyph unicode="&#x2007;" horiz-adv-x="468" />
<glyph unicode="&#x2008;" horiz-adv-x="350" />
<glyph unicode="&#x2009;" horiz-adv-x="563" />
<glyph unicode="&#x200a;" horiz-adv-x="155" />
<glyph unicode="&#x2010;" horiz-adv-x="1024" d="M0 768h768v-256h-768v256z" />
<glyph unicode="&#x2011;" horiz-adv-x="1024" d="M0 768h768v-256h-768v256z" />
<glyph unicode="&#x2012;" horiz-adv-x="1024" d="M0 768h768v-256h-768v256z" />
<glyph unicode="&#x2013;" d="M0 1024h1280v-256h-1280v256z" />
<glyph unicode="&#x2014;" horiz-adv-x="2048" d="M0 1024h1792v-256h-1792v256z" />
<glyph unicode="&#x2018;" horiz-adv-x="768" d="M256 1536v205h205v-205h-103v-102h-102v-154h-256v256h256z" />
<glyph unicode="&#x2019;" horiz-adv-x="768" d="M256 1536v-205h-205v205h103v102h102v154h256v-256h-256z" />
<glyph unicode="&#x201a;" horiz-adv-x="768" d="M256 0v-205h-205v205h103v102h102v154h256v-256h-256z" />
<glyph unicode="&#x201c;" horiz-adv-x="1280" d="M256 1536v205h205v-205h307v205h205v-205h-103v-102h-102v-154h-256v254h-154v-100h-102v-154h-256v256h256z" />
<glyph unicode="&#x201d;" horiz-adv-x="1280" d="M256 1331h-205v205h103v102h102v154h256v-256h154v102h102v154h256v-256h-256v-205h-205v203h-307v-203z" />
<glyph unicode="&#x201e;" horiz-adv-x="1280" d="M256 -205h-205v205h103v102h102v154h256v-256h154v102h102v154h256v-256h-256v-205h-205v203h-307v-203z" />
<glyph unicode="&#x2022;" d="M0 1280h256v256h768v-256h256v-768h-256v-256h-768v256h-256v768z" />
<glyph unicode="&#x2026;" d="M0 256h256v-256h-256v256zM1024 256h256v-256h-256v256zM512 256h256v-256h-256v256z" />
<glyph unicode="&#x202f;" horiz-adv-x="563" />
<glyph unicode="&#x2039;" horiz-adv-x="1024" d="M256 766h-256v258h256v256h256v256h256v-258h-256v-256h-256v-254h256v-256h256v-256h-256v254h-256v256z" />
<glyph unicode="&#x203a;" horiz-adv-x="1024" d="M512 510h-256v-254h-256v256h256v256h256v254h-256v256h-256v258h256v-256h256v-256h256v-258h-256v-256z" />
<glyph unicode="&#x205f;" horiz-adv-x="702" />
<glyph unicode="&#x20ac;" d="M256 1280h870v-102h-102v-154h-768v-256h870v-102h-102v-154h-768v-256h1024v-256h-1024v154h-102v102h-154v1280h154v102h102v154h1024v-256h-1024v-256z" />
<glyph unicode="&#x2122;" horiz-adv-x="1792" d="M512 1024h-256v563h-205v205h973v-154h102v-102h154v256h256v-768h-256v307h-205v205h-51v-512h-256v766h-51v-203h-205v-563z" />
<glyph unicode="&#xe000;" horiz-adv-x="1280" d="M0 1280h1280v-1280h-1280v1280z" />
<glyph unicode="&#xfb01;" horiz-adv-x="1792" d="M0 1280h256v256h154v102h102v154h512v-256h-512v-256h1024v-1280h-256v1022h-768v-1022h-256v1022h-256v258zM1280 1536v256h256v-256h-256zM512 1024v254h-51v-203h-205v-51h256z" />
<glyph unicode="&#xfb02;" horiz-adv-x="1792" d="M0 1280h256v256h154v102h102v154h1024v-1792h-256v1536h-768v-256h512v-258h-512v-1022h-256v1022h-256v258zM512 1024v254h-51v-203h-205v-51h256z" />
<glyph unicode="&#xfb03;" horiz-adv-x="3072" d="M2560 1280h256v-1280h-256v1280zM2560 1792h256v-256h-256v256zM1280 1280h256v256h154v102h102v154h512v-256h-512v-256h512v-258h-512v-1022h-256v1022h-256v258zM1792 1024v254h-51v-203h-205v-51h256zM0 1280h256v256h154v102h102v154h512v-256h-512v-256h512v-258 h-512v-1022h-256v1022h-256v258zM512 1024v254h-51v-203h-205v-51h256z" />
<glyph unicode="&#xfb04;" horiz-adv-x="3072" d="M2765 1741v-205h51v-1536h-256v1741h205zM1280 1280h256v256h154v102h102v154h512v-256h-512v-256h512v-258h-512v-1022h-256v1022h-256v258zM1792 1024v254h-51v-203h-205v-51h256zM0 1280h256v256h154v102h102v154h512v-256h-512v-256h512v-258h-512v-1022h-256v1022 h-256v258zM512 1024v254h-51v-203h-205v-51h256z" />
</font>
</defs>
</svg>
